<?xml version="1.0" standalone="no"?>
<!DOCTYPE svg PUBLIC "-//W3C//DTD SVG 1.1//EN" "http://www.w3.org/Graphics/SVG/1.1/DTD/svg11.dtd" >
<svg xmlns="http://www.w3.org/2000/svg" xmlns:xlink="http://www.w3.org/1999/xlink" version="1.1">
<metadata>
Created by FontForge 20190801 at Thu Apr 17 09:59:02 2014
 By Unknown
Copyright \(c\) 2014 by Vyacheslav Kirilenko, Gayane Bagdasaryan. All rights reserved.
</metadata>
<defs>
<font id="Formular-Black" horiz-adv-x="630" >
  <font-face 
    font-family="Formular"
    font-weight="900"
    font-stretch="normal"
    units-per-em="1000"
    panose-1="2 0 0 0 0 0 0 0 0 0"
    ascent="800"
    descent="-200"
    x-height="520"
    cap-height="714"
    bbox="-145 -240 1402 983"
    underline-thickness="50"
    underline-position="-100"
    unicode-range="U+000D-FEFF"
  />
<missing-glyph horiz-adv-x="510" 
d="M49 0v714h412v-714h-412zM125 70h260v574h-260v-574z" />
    <glyph glyph-name="fi" unicode="fi" horiz-adv-x="721" 
d="M388 378h-124v-378h-174v378h-68v142h68v24c0 139 99 183 221 183h77v-142h-74c-39 0 -50 -24 -50 -48v-17h124v-142zM478 727h174v-145h-174v145zM478 520h174v-520h-174v520z" />
    <glyph glyph-name="fl" unicode="fl" horiz-adv-x="721" 
d="M388 378h-124v-378h-174v378h-68v142h68v24c0 139 99 183 221 183h77v-142h-74c-39 0 -50 -24 -50 -48v-17h124v-142zM478 727h174v-727h-174v727z" />
    <glyph glyph-name=".notdef" horiz-adv-x="510" 
d="M49 0v714h412v-714h-412zM125 70h260v574h-260v-574z" />
    <glyph glyph-name="NULL" horiz-adv-x="0" 
 />
    <glyph glyph-name="NULL" horiz-adv-x="0" 
 />
    <glyph glyph-name="CR" unicode="&#xd;" horiz-adv-x="278" 
 />
    <glyph glyph-name="space" unicode=" " horiz-adv-x="278" 
 />
    <glyph glyph-name="exclam" unicode="!" horiz-adv-x="364" 
d="M95 714h174v-287l-32 -196h-110l-32 196v287zM274 0h-184v174h184v-174z" />
    <glyph glyph-name="quotedbl" unicode="&#x22;" horiz-adv-x="514" 
d="M69 407v307h154v-307h-154zM291 407v307h154v-307h-154z" />
    <glyph glyph-name="numbersign" unicode="#" horiz-adv-x="669" 
d="M329 0l27 172h-99l-27 -172h-133l27 172h-95v128h116l16 100h-102v128h122l28 172h131l-27 -172h100l28 172h131l-27 -172h95v-128h-116l-15 -100h101v-128h-121l-27 -172h-133zM292 400l-15 -100h100l16 100h-101z" />
    <glyph glyph-name="dollar" unicode="$" horiz-adv-x="667" 
d="M368 798v-87c126 -13 219 -94 232 -215h-176c-5 31 -28 56 -57 63v-129l51 -9c109 -19 198 -78 198 -206c0 -114 -79 -216 -250 -227v-86h-70v87c-159 12 -241 101 -254 242h176c7 -51 39 -81 78 -89v147l-53 10c-121 23 -181 91 -181 195c0 112 82 208 234 219v85h72z
M439 205c0 35 -23 60 -72 71v-137c43 4 72 29 72 66zM239 502c0 -33 22 -53 57 -60v120c-33 -5 -57 -28 -57 -60z" />
    <glyph glyph-name="percent" unicode="%" horiz-adv-x="880" 
d="M287 0h-117l424 700h116zM200 714c115 0 170 -82 170 -190s-55 -188 -170 -188c-114 0 -169 80 -169 188s55 190 169 190zM200 430c45 0 63 39 63 94c0 56 -18 96 -63 96s-62 -40 -62 -96c0 -55 17 -94 62 -94zM679 365c115 0 170 -82 170 -190s-55 -188 -170 -188
c-114 0 -169 80 -169 188s55 190 169 190zM679 81c45 0 63 39 63 94c0 56 -18 96 -63 96s-62 -40 -62 -96c0 -55 17 -94 62 -94z" />
    <glyph glyph-name="ampersand" unicode="&#x26;" horiz-adv-x="796" 
d="M530 368h166c-11 -75 -39 -145 -82 -205l162 -163h-206l-46 47h-28c-61 -43 -126 -60 -195 -60c-152 0 -252 83 -252 216c0 88 61 153 111 182v28c-31 39 -50 73 -50 128c0 102 77 173 200 173c118 0 210 -64 210 -173c0 -71 -46 -121 -117 -169l95 -97
c16 27 27 62 32 93zM312 135c33 0 63 10 92 30l-127 127l-14 -10c-29 -19 -43 -44 -43 -73c0 -39 32 -74 92 -74zM308 458c32 24 62 48 62 83c0 31 -22 50 -55 50c-31 0 -54 -19 -54 -52c0 -36 27 -62 47 -81z" />
    <glyph glyph-name="quotesingle" unicode="'" horiz-adv-x="292" 
d="M69 407v307h154v-307h-154z" />
    <glyph glyph-name="parenleft" unicode="(" horiz-adv-x="343" 
d="M340 -141h-143c-74 90 -156 234 -156 450c0 217 82 360 156 450h143c-67 -99 -152 -245 -152 -450s85 -351 152 -450z" />
    <glyph glyph-name="parenright" unicode=")" horiz-adv-x="343" 
d="M146 -141h-143c67 99 152 245 152 450s-85 351 -152 450h143c74 -90 156 -233 156 -450c0 -216 -82 -360 -156 -450z" />
    <glyph glyph-name="asterisk" unicode="*" horiz-adv-x="509" 
d="M197 714h116l-8 -152l144 53l36 -110l-148 -41l96 -119l-94 -69l-85 128l-84 -128l-93 69l95 119l-148 41l36 110l143 -53z" />
    <glyph glyph-name="plus" unicode="+" horiz-adv-x="667" 
d="M260 366v186h146v-186h187v-147h-187v-186h-146v186h-186v147h186z" />
    <glyph glyph-name="comma" unicode="," horiz-adv-x="314" 
d="M249 -28l-90 -130h-105l90 130v28h-79v174h184v-202z" />
    <glyph glyph-name="hyphen" unicode="-" horiz-adv-x="413" 
d="M368 212h-323v149h323v-149z" />
    <glyph glyph-name="period" unicode="." horiz-adv-x="314" 
d="M249 0h-184v174h184v-174z" />
    <glyph glyph-name="slash" unicode="/" horiz-adv-x="460" 
d="M137 -141h-140l302 900h137z" />
    <glyph glyph-name="zero" unicode="0" horiz-adv-x="660" 
d="M330 714c160 0 284 -107 284 -363s-124 -364 -284 -364s-284 108 -284 364s124 363 284 363zM330 144c99 0 105 132 105 207c0 76 -6 206 -105 206s-105 -130 -105 -206c0 -75 6 -207 105 -207z" />
    <glyph glyph-name="one" unicode="1" horiz-adv-x="550" 
d="M381 154h139v-154h-471v154h154v371h-28l-126 -87v174l125 88h207v-546z" />
    <glyph glyph-name="two" unicode="2" horiz-adv-x="623" 
d="M586 154v-154h-538v182l226 154c60 41 116 82 116 143c0 53 -32 81 -79 81s-82 -25 -86 -82h-178c7 151 103 236 270 236c149 0 252 -84 252 -233c0 -141 -140 -232 -244 -299v-28h261z" />
    <glyph glyph-name="three" unicode="3" horiz-adv-x="626" 
d="M70 700h475v-176l-112 -71v-28c81 -14 153 -76 153 -194c0 -148 -115 -244 -280 -244c-168 0 -276 102 -279 236h179c8 -53 45 -83 101 -83c64 0 100 40 100 91c0 56 -34 96 -101 96c-29 0 -47 -3 -66 -8v134l112 71v28h-282v148z" />
    <glyph glyph-name="four" unicode="4" horiz-adv-x="648" 
d="M530 295h83v-152h-83v-143h-171v143h-325v180l304 377h192v-405zM194 295h172v206h-28l-144 -178v-28z" />
    <glyph glyph-name="five" unicode="5" horiz-adv-x="642" 
d="M375 480c117 0 224 -88 224 -236c0 -153 -119 -257 -271 -257c-171 0 -272 101 -280 236h179c8 -51 39 -83 95 -83c64 0 98 45 98 101c0 73 -45 103 -98 103c-36 0 -70 -13 -93 -44h-163l31 400h452v-148h-315l-7 -109h28c23 18 54 37 120 37z" />
    <glyph glyph-name="six" unicode="6" horiz-adv-x="640" 
d="M380 471c124 0 226 -94 226 -232c0 -137 -104 -252 -268 -252c-165 0 -292 93 -292 354c0 220 89 373 293 373c132 0 237 -89 250 -197h-178c-7 28 -28 54 -77 54c-62 0 -110 -40 -118 -149h28c19 22 55 49 136 49zM333 131c56 0 94 36 94 103s-38 101 -94 101
s-94 -33 -94 -100c0 -65 38 -104 94 -104z" />
    <glyph glyph-name="seven" unicode="7" horiz-adv-x="588" 
d="M544 518l-266 -518h-186l266 518v28h-313v154h499v-182z" />
    <glyph glyph-name="eight" unicode="8" horiz-adv-x="645" 
d="M501 387v-28c43 -21 102 -69 102 -158c0 -111 -91 -214 -280 -214c-190 0 -281 103 -281 214c0 89 57 137 102 158v28c-33 19 -78 58 -78 138c0 102 89 189 257 189c167 0 256 -87 256 -189c0 -80 -45 -119 -78 -138zM323 581c-57 0 -86 -39 -86 -78c0 -40 29 -78 86 -78
s85 38 85 78c0 39 -28 78 -85 78zM323 131c73 0 102 44 102 87c0 40 -29 87 -102 87c-75 0 -103 -47 -103 -87c0 -43 28 -87 103 -87z" />
    <glyph glyph-name="nine" unicode="9" horiz-adv-x="640" 
d="M260 230c-124 0 -226 94 -226 232c0 137 104 252 268 252c165 0 292 -93 292 -354c0 -220 -89 -373 -293 -373c-132 0 -237 89 -250 197h178c7 -28 28 -54 77 -54c62 0 110 40 118 149h-28c-19 -22 -55 -49 -136 -49zM307 570c-56 0 -94 -36 -94 -103s38 -101 94 -101
s94 33 94 100c0 65 -38 104 -94 104z" />
    <glyph glyph-name="colon" unicode=":" horiz-adv-x="314" 
d="M249 0h-184v174h184v-174zM249 346h-184v174h184v-174z" />
    <glyph glyph-name="semicolon" unicode=";" horiz-adv-x="314" 
d="M249 -28l-90 -130h-105l90 130v28h-79v174h184v-202zM249 346h-184v174h184v-174z" />
    <glyph glyph-name="less" unicode="&#x3c;" horiz-adv-x="653" 
d="M579 158v-153l-505 230v114l505 230v-152l-270 -121v-28z" />
    <glyph glyph-name="equal" unicode="=" horiz-adv-x="667" 
d="M593 261v-147h-519v147h519zM593 471v-147h-519v147h519z" />
    <glyph glyph-name="greater" unicode="&#x3e;" horiz-adv-x="653" 
d="M74 5v153l270 120v28l-270 121v152l505 -230v-114z" />
    <glyph glyph-name="question" unicode="?" horiz-adv-x="597" 
d="M288 727c187 0 264 -101 264 -217c0 -95 -57 -136 -121 -176c-47 -31 -64 -49 -64 -78v-25h-178v25c0 75 30 113 90 155c52 35 92 48 92 98c0 36 -25 64 -77 64c-55 0 -86 -27 -87 -88h-177c0 126 80 242 258 242zM369 0h-184v174h184v-174z" />
    <glyph glyph-name="at" unicode="@" horiz-adv-x="975" 
d="M730 451l-43 -255c-3 -11 -4 -29 -4 -40c0 -40 19 -54 52 -54c51 0 123 52 123 218c0 180 -129 313 -345 313c-225 0 -396 -166 -396 -423c0 -174 101 -339 339 -339c88 0 166 26 231 70l31 -54c-75 -49 -162 -77 -267 -77c-245 0 -403 162 -403 398
c0 277 189 486 473 486c220 0 406 -144 406 -373c0 -165 -77 -290 -228 -290c-76 0 -117 25 -136 64h-17c-23 -33 -65 -64 -128 -64c-103 0 -161 69 -161 182c0 132 85 252 212 252c53 0 85 -24 98 -47h17l8 33h138zM463 135c56 0 92 68 92 142c0 69 -32 85 -60 85
c-55 0 -90 -68 -90 -142c0 -68 30 -85 58 -85z" />
    <glyph glyph-name="A" unicode="A" horiz-adv-x="743" 
d="M512 714l214 -714h-185l-52 185h-240l-51 -185h-181l214 714h281zM347 538l-58 -207h159l-57 207h-44z" />
    <glyph glyph-name="B" unicode="B" horiz-adv-x="738" 
d="M597 382v-28c43 -21 89 -74 89 -144c0 -120 -76 -210 -248 -210h-361v714h350c163 0 240 -88 240 -195c0 -64 -30 -114 -70 -137zM263 564v-123h139c40 0 74 14 74 61s-36 62 -76 62h-137zM263 153h145c43 0 87 16 87 67c0 53 -37 71 -84 71h-148v-138z" />
    <glyph glyph-name="C" unicode="C" horiz-adv-x="749" 
d="M511 243h191c-19 -151 -132 -256 -308 -256c-220 0 -348 148 -348 370s128 370 348 370c169 0 278 -98 302 -234h-193c-12 47 -53 70 -109 70c-104 0 -158 -85 -158 -206c0 -120 54 -206 158 -206c64 0 108 32 117 92z" />
    <glyph glyph-name="D" unicode="D" horiz-adv-x="772" 
d="M77 714h318c219 0 331 -142 331 -357c0 -214 -112 -357 -331 -357h-318v714zM263 164h102c125 0 171 86 171 193c0 108 -46 193 -171 193h-102v-386z" />
    <glyph glyph-name="E" unicode="E" horiz-adv-x="675" 
d="M539 284h-276v-120h371v-164h-557v714h548v-164h-362v-106h276v-160z" />
    <glyph glyph-name="F" unicode="F" horiz-adv-x="660" 
d="M263 428h279v-160h-279v-268h-186v714h546v-164h-360v-122z" />
    <glyph glyph-name="G" unicode="G" horiz-adv-x="771" 
d="M398 408h322v-91c0 -168 -92 -330 -321 -330c-228 0 -353 148 -353 370c0 219 125 370 353 370c171 0 278 -94 304 -229h-192c-13 43 -53 65 -113 65c-104 0 -162 -81 -162 -206c0 -127 58 -209 165 -209c84 0 132 48 135 113h-138v147z" />
    <glyph glyph-name="H" unicode="H" horiz-adv-x="791" 
d="M528 714h186v-714h-186v283h-265v-283h-186v714h186v-264h265v264z" />
    <glyph glyph-name="I" unicode="I" horiz-adv-x="350" 
d="M268 714v-714h-186v714h186z" />
    <glyph glyph-name="J" unicode="J" horiz-adv-x="617" 
d="M287 -13c-152 0 -261 87 -264 247h185c2 -55 28 -83 77 -83s71 38 71 99v464h186v-467c0 -165 -96 -260 -255 -260z" />
    <glyph glyph-name="K" unicode="K" horiz-adv-x="775" 
d="M263 220v-220h-186v714h186v-260l247 260h212l-202 -219l237 -495h-200l-160 330h-28z" />
    <glyph glyph-name="L" unicode="L" horiz-adv-x="669" 
d="M263 164h365v-164h-551v714h186v-550z" />
    <glyph glyph-name="M" unicode="M" horiz-adv-x="896" 
d="M541 714h278v-714h-171v483h-28l-81 -257h-182l-81 257h-28v-483h-171v714h278l79 -259h28z" />
    <glyph glyph-name="N" unicode="N" horiz-adv-x="792" 
d="M550 714h165v-714h-223l-222 415h-28v-415h-165v714h223l222 -415h28v415z" />
    <glyph glyph-name="O" unicode="O" horiz-adv-x="806" 
d="M403 727c231 0 357 -158 357 -370s-126 -370 -357 -370s-357 158 -357 370s126 370 357 370zM403 151c111 0 167 86 167 206s-56 206 -167 206s-167 -85 -167 -206c0 -120 56 -206 167 -206z" />
    <glyph glyph-name="P" unicode="P" horiz-adv-x="732" 
d="M77 714h342c169 0 267 -86 267 -235c0 -151 -98 -239 -267 -239h-156v-240h-186v714zM263 399h132c73 0 101 26 101 77s-28 76 -101 76h-132v-153z" />
    <glyph glyph-name="Q" unicode="Q" horiz-adv-x="806" 
d="M403 727c231 0 357 -158 357 -370c0 -120 -39 -219 -115 -287l88 -153h-160l-49 87c-37 -11 -78 -17 -121 -17c-231 0 -357 158 -357 370s126 370 357 370zM403 151c13 0 26 1 37 3l-102 185h155l55 -97c15 33 22 72 22 115c0 120 -56 206 -167 206s-167 -85 -167 -206
c0 -120 56 -206 167 -206z" />
    <glyph glyph-name="R" unicode="R" horiz-adv-x="737" 
d="M77 714h349c165 0 261 -86 261 -231c0 -91 -36 -157 -104 -196l103 -287h-186l-89 250h-148v-250h-186v714zM263 405h138c69 0 96 27 96 74c0 48 -27 73 -96 73h-138v-147z" />
    <glyph glyph-name="S" unicode="S" horiz-adv-x="706" 
d="M637 508h-190c-11 48 -49 64 -105 64c-49 0 -91 -19 -91 -62c0 -35 26 -48 69 -55l131 -21c116 -19 204 -83 204 -214c0 -123 -95 -233 -298 -233c-191 0 -300 90 -315 243h190c11 -69 70 -88 133 -88c64 0 103 27 103 67c0 44 -31 59 -82 68l-134 22
c-129 21 -189 95 -189 203c0 123 100 225 281 225c160 0 280 -81 293 -219z" />
    <glyph glyph-name="T" unicode="T" horiz-adv-x="643" 
d="M628 714v-164h-214v-550h-186v550h-213v164h613z" />
    <glyph glyph-name="U" unicode="U" horiz-adv-x="772" 
d="M512 714h185v-447c0 -181 -113 -280 -312 -280c-197 0 -310 99 -310 280v447h185v-443c0 -72 46 -120 126 -120s126 48 126 120v443z" />
    <glyph glyph-name="V" unicode="V" horiz-adv-x="729" 
d="M217 0l-200 714h193l135 -538h44l134 538h189l-199 -714h-296z" />
    <glyph glyph-name="W" unicode="W" horiz-adv-x="959" 
d="M735 714h174l-82 -714h-262l-71 344h-28l-71 -344h-263l-82 714h176l51 -490h28l64 290h223l64 -290h28z" />
    <glyph glyph-name="X" unicode="X" horiz-adv-x="722" 
d="M504 0l-129 276h-28l-132 -276h-197l186 374l-161 340h185l120 -248h28l123 248h184l-165 -337l186 -377h-200z" />
    <glyph glyph-name="Y" unicode="Y" horiz-adv-x="701" 
d="M336 454h28l130 260h194l-245 -471v-243h-186v244l-244 470h192z" />
    <glyph glyph-name="Z" unicode="Z" horiz-adv-x="679" 
d="M621 714v-194l-344 -325v-31h361v-164h-597v194l346 325v31h-318v164h552z" />
    <glyph glyph-name="bracketleft" unicode="[" horiz-adv-x="415" 
d="M366 -141h-301v900h301v-125h-155v-650h155v-125z" />
    <glyph glyph-name="backslash" unicode="\" horiz-adv-x="460" 
d="M463 -141h-140l-299 900h137z" />
    <glyph glyph-name="bracketright" unicode="]" horiz-adv-x="415" 
d="M350 -141h-301v125h155v650h-155v125h301v-900z" />
    <glyph glyph-name="asciicircum" unicode="^" horiz-adv-x="613" 
d="M197 260h-161l217 434h107l217 -434h-161l-96 196h-28z" />
    <glyph glyph-name="underscore" unicode="_" horiz-adv-x="517" 
d="M518 -166h-519v107h519v-107z" />
    <glyph glyph-name="grave" unicode="`" horiz-adv-x="354" 
d="M314 582h-152l-122 145h178z" />
    <glyph glyph-name="a" unicode="a" horiz-adv-x="604" 
d="M293 533c147 0 248 -52 248 -205v-328h-159v40h-28c-31 -35 -70 -53 -137 -53c-115 0 -182 83 -182 175c0 81 61 173 219 173h120v9c0 49 -27 66 -71 66s-65 -17 -69 -45h-172c3 101 98 168 231 168zM374 205v31h-84c-48 0 -81 -21 -81 -60c0 -40 27 -61 74 -61
c57 0 91 39 91 90z" />
    <glyph glyph-name="b" unicode="b" horiz-adv-x="658" 
d="M401 533c133 0 216 -114 216 -273s-80 -273 -216 -273c-68 0 -108 22 -136 57h-28v-44h-168v727h174v-251h28c27 35 65 57 130 57zM341 129c73 0 102 61 102 131s-29 131 -102 131s-105 -61 -105 -131s32 -131 105 -131z" />
    <glyph glyph-name="c" unicode="c" horiz-adv-x="601" 
d="M387 186h171c-11 -118 -112 -199 -248 -199c-161 0 -269 102 -269 273c0 169 108 273 269 273c135 0 232 -75 243 -189h-171c-9 31 -33 47 -71 47c-71 0 -96 -60 -96 -131c0 -72 26 -131 96 -131c43 0 71 21 76 57z" />
    <glyph glyph-name="d" unicode="d" horiz-adv-x="658" 
d="M257 533c65 0 103 -22 130 -57h28v251h174v-727h-168v44h-28c-28 -35 -68 -57 -136 -57c-136 0 -216 114 -216 273s83 273 216 273zM317 129c73 0 105 61 105 131s-32 131 -105 131s-102 -61 -102 -131s29 -131 102 -131z" />
    <glyph glyph-name="e" unicode="e" horiz-adv-x="614" 
d="M393 168h176c-23 -113 -106 -181 -255 -181c-165 0 -273 102 -273 273c0 170 106 273 269 273c165 0 263 -100 263 -256v-40h-360c7 -71 39 -108 104 -108c43 0 65 12 76 39zM310 409c-51 0 -77 -24 -90 -68h175c-9 45 -38 68 -85 68z" />
    <glyph glyph-name="f" unicode="f" horiz-adv-x="418" 
d="M388 378h-124v-378h-174v378h-68v142h68v24c0 139 99 183 221 183h77v-142h-74c-39 0 -50 -24 -50 -48v-17h124v-142z" />
    <glyph glyph-name="g" unicode="g" horiz-adv-x="660" 
d="M423 520h168v-494c0 -150 -116 -239 -272 -239c-148 0 -251 63 -259 184h172c4 -31 29 -53 85 -53c76 0 100 60 100 125v25h-26c-20 -31 -57 -57 -125 -57c-137 0 -225 109 -225 261s89 261 226 261c67 0 112 -29 128 -57h28v44zM318 153c68 0 106 51 106 119
s-38 119 -106 119c-65 0 -103 -54 -103 -119s38 -119 103 -119z" />
    <glyph glyph-name="h" unicode="h" horiz-adv-x="654" 
d="M405 533c131 0 186 -82 186 -219v-314h-174v285c0 60 -27 96 -82 96c-59 0 -92 -50 -92 -107v-274h-174v727h174v-253h28c31 37 67 59 134 59z" />
    <glyph glyph-name="i" unicode="i" horiz-adv-x="312" 
d="M69 727h174v-145h-174v145zM69 520h174v-520h-174v520z" />
    <glyph glyph-name="j" unicode="j" horiz-adv-x="323" 
d="M80 6v514h174v-529c0 -151 -103 -191 -218 -191h-66v142h46c45 0 64 27 64 64zM80 727h174v-145h-174v145z" />
    <glyph glyph-name="k" unicode="k" horiz-adv-x="627" 
d="M617 0h-180l-105 221h-28l-60 -69v-152h-175v727h175v-378l160 171h191l-147 -161z" />
    <glyph glyph-name="l" unicode="l" horiz-adv-x="312" 
d="M69 727h174v-727h-174v727z" />
    <glyph glyph-name="m" unicode="m" horiz-adv-x="940" 
d="M689 533c128 0 188 -82 188 -211v-322h-174v286c0 59 -15 95 -66 95c-55 0 -77 -43 -77 -98v-283h-174v286c0 59 -15 95 -66 95c-57 0 -77 -49 -77 -106v-275h-174v520h168v-45h28c25 39 70 58 127 58c64 0 104 -21 131 -58h28c27 39 75 58 138 58z" />
    <glyph glyph-name="n" unicode="n" horiz-adv-x="654" 
d="M403 533c131 0 188 -82 188 -219v-314h-174v285c0 60 -27 96 -82 96c-59 0 -92 -50 -92 -107v-274h-174v520h168v-45h28c32 39 73 58 138 58z" />
    <glyph glyph-name="o" unicode="o" horiz-adv-x="637" 
d="M319 533c167 0 277 -105 277 -273s-110 -273 -277 -273c-166 0 -278 105 -278 273s112 273 278 273zM319 129c72 0 103 58 103 131c0 72 -31 131 -103 131c-73 0 -104 -59 -104 -131c0 -73 31 -131 104 -131z" />
    <glyph glyph-name="p" unicode="p" horiz-adv-x="658" 
d="M401 -13c-65 0 -103 22 -130 57h-28v-244h-174v720h168v-44h28c28 35 68 57 136 57c136 0 216 -114 216 -273s-83 -273 -216 -273zM341 391c-73 0 -105 -61 -105 -131s32 -131 105 -131s102 61 102 131s-29 131 -102 131z" />
    <glyph glyph-name="q" unicode="q" horiz-adv-x="658" 
d="M257 -13c-133 0 -216 114 -216 273s80 273 216 273c68 0 108 -22 136 -57h28v44h168v-720h-174v244h-28c-27 -35 -65 -57 -130 -57zM317 391c-73 0 -102 -61 -102 -131s29 -131 102 -131s105 61 105 131s-32 131 -105 131z" />
    <glyph glyph-name="r" unicode="r" horiz-adv-x="477" 
d="M453 520v-161h-55c-112 0 -155 -54 -155 -150v-209h-174v520h168v-56h28c11 19 45 56 133 56h55z" />
    <glyph glyph-name="s" unicode="s" horiz-adv-x="565" 
d="M267 340l85 -12c104 -13 177 -62 177 -168c0 -89 -79 -173 -242 -173s-244 73 -253 184h172c5 -40 32 -60 83 -60c43 0 66 17 66 45c0 29 -20 40 -63 47l-92 15c-88 15 -149 58 -149 146c0 91 69 169 231 169c136 0 218 -65 230 -160h-171c-5 25 -26 38 -63 38
c-29 0 -53 -12 -53 -35s15 -32 42 -36z" />
    <glyph glyph-name="t" unicode="t" horiz-adv-x="422" 
d="M264 520h104v-142h-104v-188c0 -24 14 -45 51 -45h53v-145h-56c-123 0 -222 31 -222 171v207h-68v142h68v140h174v-140z" />
    <glyph glyph-name="u" unicode="u" horiz-adv-x="654" 
d="M251 -13c-131 0 -188 82 -188 219v314h174v-285c0 -60 27 -96 82 -96c59 0 92 50 92 107v274h174v-520h-168v45h-28c-32 -39 -73 -58 -138 -58z" />
    <glyph glyph-name="v" unicode="v" horiz-adv-x="601" 
d="M153 0l-134 520h175l87 -372h44l82 372h175l-137 -520h-292z" />
    <glyph glyph-name="w" unicode="w" horiz-adv-x="784" 
d="M587 520h159l-69 -520h-200l-72 233h-28l-72 -233h-198l-69 520h161l34 -321h28l56 195h152l56 -195h28z" />
    <glyph glyph-name="x" unicode="x" horiz-adv-x="636" 
d="M421 0l-85 175h-38l-86 -175h-181l140 267l-126 253h179l77 -163h38l79 163h177l-129 -251l139 -269h-184z" />
    <glyph glyph-name="y" unicode="y" horiz-adv-x="628" 
d="M440 520h172l-315 -720h-172l109 257l-218 463h174l117 -252h28z" />
    <glyph glyph-name="z" unicode="z" horiz-adv-x="578" 
d="M515 351l-228 -181v-28h240v-142h-476v169l229 181v28h-213v142h448v-169z" />
    <glyph glyph-name="braceleft" unicode="{" horiz-adv-x="449" 
d="M218 323v-28c41 -13 74 -54 74 -118v-83c0 -71 21 -110 88 -110h37v-125h-67c-131 0 -204 85 -204 197v92c0 61 -22 95 -77 95h-29v132h29c55 0 77 34 77 95v92c0 112 73 197 204 197h67v-125h-37c-67 0 -88 -39 -88 -110v-83c0 -64 -33 -105 -74 -118z" />
    <glyph glyph-name="bar" unicode="|" horiz-adv-x="282" 
d="M74 -141v900h134v-900h-134z" />
    <glyph glyph-name="braceright" unicode="}" horiz-adv-x="449" 
d="M231 295v28c-41 13 -74 54 -74 118v83c0 71 -21 110 -88 110h-37v125h67c131 0 204 -85 204 -197v-92c0 -61 22 -95 77 -95h29v-132h-29c-55 0 -77 -34 -77 -95v-92c0 -112 -73 -197 -204 -197h-67v125h37c67 0 88 39 88 110v83c0 64 33 105 74 118z" />
    <glyph glyph-name="asciitilde" unicode="~" horiz-adv-x="672" 
d="M484 383h114c0 -135 -61 -195 -153 -195c-89 0 -155 81 -213 81c-25 0 -44 -19 -44 -66h-114c0 135 60 195 152 195c88 0 157 -81 213 -81c25 0 45 19 45 66z" />
    <glyph glyph-name="uni00A0" unicode="&#xa0;" horiz-adv-x="278" 
 />
    <glyph glyph-name="exclamdown" unicode="&#xa1;" horiz-adv-x="364" 
d="M269 -200h-174v293l32 196h110l32 -196v-293zM90 520h184v-174h-184v174z" />
    <glyph glyph-name="cent" unicode="&#xa2;" horiz-adv-x="601" 
d="M332 600v-68c124 -9 208 -80 221 -188h-159c-5 31 -29 55 -62 60v-286c36 7 62 37 66 68h160c-13 -108 -104 -190 -226 -198v-68h-51v68c-143 11 -240 118 -240 272c0 153 97 258 240 271v69h51zM200 260c0 -69 25 -130 81 -142v285c-56 -13 -81 -73 -81 -143z" />
    <glyph glyph-name="sterling" unicode="&#xa3;" horiz-adv-x="655" 
d="M271 154h354v-154h-587v154h15c55 0 67 34 67 83v29h-81v135h81v75c0 133 80 238 240 238c161 0 239 -102 244 -227h-179c-2 49 -23 73 -62 73s-65 -21 -65 -81v-78h214v-135h-214v-12c0 -39 -8 -56 -27 -72v-28z" />
    <glyph glyph-name="currency" unicode="&#xa4;" horiz-adv-x="721" 
d="M74 496l73 73l68 -68c43 28 91 44 146 44s104 -16 145 -44l69 68l72 -73l-67 -69c27 -41 43 -91 43 -144c0 -55 -16 -103 -44 -146l68 -69l-72 -72l-69 67c-43 -28 -90 -44 -145 -44s-103 16 -146 44l-68 -67l-73 72l68 68c-28 43 -45 92 -45 147s16 102 44 145zM361 117
c88 0 157 72 157 165s-69 164 -157 164s-158 -71 -158 -164s70 -165 158 -165z" />
    <glyph glyph-name="yen" unicode="&#xa5;" horiz-adv-x="681" 
d="M67 403h93l-133 297h175l124 -297h28l124 297h176l-134 -297h92v-77h-127l-24 -54h151v-77h-186v-195h-173v195h-186v77h151l-24 54h-127v77z" />
    <glyph glyph-name="brokenbar" unicode="&#xa6;" horiz-adv-x="282" 
d="M74 403v356h134v-356h-134zM74 -141v356h134v-356h-134z" />
    <glyph glyph-name="section" unicode="&#xa7;" horiz-adv-x="654" 
d="M604 275c0 -74 -54 -115 -93 -128v-28c29 -23 46 -60 46 -111c0 -103 -88 -182 -240 -182c-136 0 -233 72 -241 210h158c5 -50 36 -75 91 -75c56 0 74 25 74 52c0 28 -20 43 -64 55l-128 34c-96 25 -157 70 -157 163c0 77 54 115 93 128v28c-29 23 -46 60 -46 111
c0 103 88 182 240 182c136 0 233 -69 241 -208h-158c-5 49 -35 73 -91 73s-74 -25 -74 -52c0 -28 20 -42 64 -55c35 -11 90 -23 128 -34c96 -24 157 -69 157 -163zM324 213l80 -23c27 9 43 34 43 59c0 28 -14 48 -55 60l-62 18c-33 9 -68 19 -80 23c-27 -9 -43 -32 -43 -59
c0 -28 14 -48 55 -60c22 -7 43 -13 62 -18z" />
    <glyph glyph-name="dieresis" unicode="&#xa8;" horiz-adv-x="425" 
d="M40 727h139v-145h-139v145zM246 727h139v-145h-139v145z" />
    <glyph glyph-name="copyright" unicode="&#xa9;" horiz-adv-x="846" 
d="M423 727c213 0 372 -156 372 -370c0 -216 -157 -370 -372 -370c-217 0 -372 154 -372 370c0 215 159 370 372 370zM423 48c179 0 304 132 304 309c0 178 -123 310 -304 310c-180 0 -302 -132 -302 -310c0 -179 121 -309 302 -309zM500 299h103
c-15 -83 -73 -140 -173 -140c-123 0 -188 85 -188 198s65 197 188 197c97 0 157 -54 170 -130h-103c-8 28 -32 41 -67 41c-57 0 -84 -44 -84 -108s27 -109 84 -109c37 0 63 16 70 51z" />
    <glyph glyph-name="ordfeminine" unicode="&#xaa;" horiz-adv-x="444" 
d="M280 485v23h-70c-39 0 -66 -18 -66 -47c0 -31 24 -47 60 -47c45 0 76 30 76 71zM215 721c104 0 175 -39 175 -145v-240h-105v29h-18c-23 -24 -54 -38 -103 -38c-85 0 -131 58 -131 125c0 60 41 125 154 125h93v9c0 37 -22 51 -59 51c-36 0 -52 -12 -57 -36h-111
c4 72 67 120 162 120z" />
    <glyph glyph-name="guillemotleft" unicode="&#xab;" horiz-adv-x="714" 
d="M665 495l-177 -189v-28l177 -189h-186l-151 157v92l151 157h186zM386 495l-177 -189v-28l177 -189h-186l-151 157v92l151 157h186z" />
    <glyph glyph-name="logicalnot" unicode="&#xac;" horiz-adv-x="681" 
d="M462 95v183h-388v147h533v-330h-145z" />
    <glyph glyph-name="uni00AD" unicode="&#xad;" horiz-adv-x="413" 
d="M368 212h-323v149h323v-149z" />
    <glyph glyph-name="registered" unicode="&#xae;" horiz-adv-x="846" 
d="M423 727c213 0 372 -156 372 -370c0 -216 -157 -370 -372 -370c-217 0 -372 154 -372 370c0 215 159 370 372 370zM423 48c179 0 304 132 304 309c0 178 -123 310 -304 310c-180 0 -302 -132 -302 -310c0 -179 121 -309 302 -309zM274 547h187c88 0 139 -45 139 -124
c0 -48 -18 -82 -55 -103l55 -154h-102l-48 134h-75v-134h-101v381zM375 384h69c37 0 52 14 52 38s-15 38 -52 38h-69v-76z" />
    <glyph glyph-name="overscore" unicode="&#xaf;" horiz-adv-x="394" 
d="M40 607v98h314v-98h-314z" />
    <glyph glyph-name="degree" unicode="&#xb0;" horiz-adv-x="459" 
d="M229 721c113 0 198 -85 198 -198c0 -112 -85 -197 -198 -197c-112 0 -197 85 -197 197c0 113 85 198 197 198zM229 423c56 0 95 44 95 100s-39 101 -95 101s-94 -45 -94 -101s38 -100 94 -100z" />
    <glyph glyph-name="plusminus" unicode="&#xb1;" horiz-adv-x="667" 
d="M74 0v147h186v137h-186v147h186v154h146v-154h187v-147h-187v-137h187v-147h-519z" />
    <glyph glyph-name="twosuperior" unicode="&#xb2;" horiz-adv-x="374" 
d="M341 425v-91h-308v111l105 58c51 28 86 57 86 88c0 27 -16 40 -40 40c-23 0 -42 -12 -45 -43h-106c3 85 60 133 155 133c84 0 143 -44 143 -127c0 -56 -33 -91 -74 -118l-56 -31v-20h140z" />
    <glyph glyph-name="threesuperior" unicode="&#xb3;" horiz-adv-x="370" 
d="M48 714h269v-106l-62 -27v-20c39 -5 82 -36 82 -101c0 -80 -62 -133 -155 -133c-96 0 -156 57 -159 134h107c3 -29 22 -44 53 -44c32 0 49 19 49 44c0 29 -18 45 -49 45c-17 0 -28 -2 -37 -5v79l48 29v20h-146v85z" />
    <glyph glyph-name="acute" unicode="&#xb4;" horiz-adv-x="354" 
d="M192 582h-152l96 145h178z" />
    <glyph glyph-name="mu" unicode="&#xb5;" horiz-adv-x="660" 
d="M257 -13h-14v-187h-174v720h174v-285c0 -60 27 -96 82 -96c59 0 92 50 92 107v274h174v-520h-168v45h-28c-32 -39 -73 -58 -138 -58z" />
    <glyph glyph-name="paragraph" unicode="&#xb6;" horiz-adv-x="746" 
d="M395 -177h-143v491c-120 0 -220 60 -220 200s89 200 220 200h453v-117h-80v-774h-143v774h-87v-774z" />
    <glyph glyph-name="middot" unicode="&#xb7;" horiz-adv-x="314" 
d="M249 264h-184v174h184v-174z" />
    <glyph glyph-name="cedilla" unicode="&#xb8;" horiz-adv-x="319" 
d="M112 20h55l-29 -78h16c10 8 24 12 42 12c47 0 83 -34 83 -91c0 -51 -36 -103 -124 -103c-75 0 -115 46 -115 90h83c3 -13 12 -27 35 -27c21 0 34 14 34 33c0 21 -14 33 -35 33c-13 0 -24 -4 -31 -13h-69z" />
    <glyph glyph-name="onesuperior" unicode="&#xb9;" horiz-adv-x="338" 
d="M226 425h79v-91h-272v91h86v184h-20l-66 -41v96l87 50h106v-289z" />
    <glyph glyph-name="ordmasculine" unicode="&#xba;" horiz-adv-x="459" 
d="M230 422c57 0 85 46 85 101c0 53 -26 102 -85 102c-58 0 -86 -49 -86 -102c0 -54 28 -101 86 -101zM230 721c118 0 196 -83 196 -198s-78 -196 -196 -196c-116 0 -197 81 -197 196s81 198 197 198z" />
    <glyph glyph-name="guillemotright" unicode="&#xbb;" horiz-adv-x="714" 
d="M226 306l-177 189h186l151 -157v-92l-151 -157h-186l177 189v28zM505 306l-177 189h186l151 -157v-92l-151 -157h-186l177 189v28z" />
    <glyph glyph-name="onequarter" unicode="&#xbc;" horiz-adv-x="881" 
d="M805 160h43v-88h-43v-72h-102v72h-175v107l159 201h118v-220zM707 160v106h-20l-67 -87v-19h87zM294 0h-117l424 700h116zM226 425h79v-91h-272v91h86v184h-20l-66 -41v96l87 50h106v-289z" />
    <glyph glyph-name="onehalf" unicode="&#xbd;" horiz-adv-x="911" 
d="M294 0h-117l424 700h116zM226 425h79v-91h-272v91h86v184h-20l-66 -41v96l87 50h106v-289zM878 91v-91h-308v111l105 58c51 28 86 57 86 88c0 27 -16 40 -40 40c-23 0 -42 -12 -45 -43h-106c3 85 60 133 155 133c84 0 143 -44 143 -127c0 -56 -33 -91 -74 -118l-56 -31
v-20h140z" />
    <glyph glyph-name="threequarters" unicode="&#xbe;" horiz-adv-x="887" 
d="M48 714h269v-106l-62 -27v-20c39 -5 82 -36 82 -101c0 -80 -62 -133 -155 -133c-96 0 -156 57 -159 134h107c3 -29 22 -44 53 -44c32 0 49 19 49 44c0 29 -18 45 -49 45c-17 0 -28 -2 -37 -5v79l48 29v20h-146v85zM300 0h-117l424 700h116zM811 160h43v-88h-43v-72h-102
v72h-175v107l159 201h118v-220zM713 160v106h-20l-67 -87v-19h87z" />
    <glyph glyph-name="questiondown" unicode="&#xbf;" horiz-adv-x="597" 
d="M309 -213c-187 0 -264 101 -264 217c0 94 57 136 121 176c47 31 64 49 64 78v31h178v-31c0 -75 -30 -114 -90 -155c-51 -38 -92 -46 -92 -98c0 -36 25 -64 77 -64c55 0 86 27 87 88h177c0 -126 -80 -242 -258 -242zM228 520h184v-174h-184v174z" />
    <glyph glyph-name="Agrave" unicode="&#xc0;" horiz-adv-x="743" 
d="M512 714l214 -714h-185l-52 185h-240l-51 -185h-181l214 714h281zM347 538l-58 -207h159l-57 207h-44zM454 767h-158l-122 129h184z" />
    <glyph glyph-name="Aacute" unicode="&#xc1;" horiz-adv-x="743" 
d="M512 714l214 -714h-185l-52 185h-240l-51 -185h-181l214 714h281zM347 538l-58 -207h159l-57 207h-44zM444 767h-158l96 129h184z" />
    <glyph glyph-name="Acircumflex" unicode="&#xc2;" horiz-adv-x="743" 
d="M512 714l214 -714h-185l-52 185h-240l-51 -185h-181l214 714h281zM347 538l-58 -207h159l-57 207h-44zM422 767l-39 46h-28l-39 -46h-128l111 129h142l111 -129h-130z" />
    <glyph glyph-name="Atilde" unicode="&#xc3;" horiz-adv-x="743" 
d="M512 714l214 -714h-185l-52 185h-240l-51 -185h-181l214 714h281zM347 538l-58 -207h159l-57 207h-44zM268 767h-69c0 73 33 131 108 131c62 0 89 -36 131 -36c20 0 30 11 30 34h69c0 -71 -33 -131 -108 -131c-60 0 -88 37 -131 37c-19 0 -30 -8 -30 -35z" />
    <glyph glyph-name="Adieresis" unicode="&#xc4;" horiz-adv-x="743" 
d="M512 714l214 -714h-185l-52 185h-240l-51 -185h-181l214 714h281zM347 538l-58 -207h159l-57 207h-44zM202 896h139v-129h-139v129zM408 896h139v-129h-139v129z" />
    <glyph glyph-name="Aring" unicode="&#xc5;" horiz-adv-x="743" 
d="M370 900c69 0 124 -53 124 -120c0 -25 -8 -47 -21 -66h39l214 -714h-185l-52 185h-240l-51 -185h-181l214 714h35c-13 19 -20 41 -20 66c0 67 56 120 124 120zM347 538l-58 -207h159l-57 207h-44zM370 734c25 0 46 21 46 46c0 27 -21 47 -46 47s-46 -20 -46 -47
c0 -25 21 -46 46 -46z" />
    <glyph glyph-name="AE" unicode="&#xc6;" horiz-adv-x="1079" 
d="M390 714h639v-164h-309v-106h223v-160h-223v-120h318v-164h-504v185h-228l-96 -185h-210zM489 538l-108 -207h153v207h-45z" />
    <glyph glyph-name="Ccedilla" unicode="&#xc7;" horiz-adv-x="749" 
d="M511 243h191c-19 -148 -128 -251 -297 -256l-16 -45h16c10 8 24 12 42 12c47 0 83 -34 83 -91c0 -51 -36 -103 -124 -103c-75 0 -115 46 -115 90h83c3 -13 12 -27 35 -27c21 0 34 14 34 33c0 21 -14 33 -35 33c-13 0 -24 -4 -31 -13h-69l43 113
c-196 19 -305 160 -305 368c0 222 128 370 348 370c169 0 278 -98 302 -234h-193c-12 47 -53 70 -109 70c-104 0 -158 -85 -158 -206c0 -120 54 -206 158 -206c64 0 108 32 117 92z" />
    <glyph glyph-name="Egrave" unicode="&#xc8;" horiz-adv-x="675" 
d="M539 284h-276v-120h371v-164h-557v714h548v-164h-362v-106h276v-160zM455 767h-158l-122 129h184z" />
    <glyph glyph-name="Eacute" unicode="&#xc9;" horiz-adv-x="675" 
d="M539 284h-276v-120h371v-164h-557v714h548v-164h-362v-106h276v-160zM392 767h-158l96 129h184z" />
    <glyph glyph-name="Ecircumflex" unicode="&#xca;" horiz-adv-x="675" 
d="M539 284h-276v-120h371v-164h-557v714h548v-164h-362v-106h276v-160zM407 767l-39 46h-28l-39 -46h-128l111 129h142l111 -129h-130z" />
    <glyph glyph-name="Edieresis" unicode="&#xcb;" horiz-adv-x="675" 
d="M539 284h-276v-120h371v-164h-557v714h548v-164h-362v-106h276v-160zM183 896h139v-129h-139v129zM389 896h139v-129h-139v129z" />
    <glyph glyph-name="Igrave" unicode="&#xcc;" horiz-adv-x="350" 
d="M268 714v-714h-186v714h186zM259 767h-158l-122 129h184z" />
    <glyph glyph-name="Iacute" unicode="&#xcd;" horiz-adv-x="350" 
d="M268 714v-714h-186v714h186zM254 767h-158l96 129h184z" />
    <glyph glyph-name="Icircumflex" unicode="&#xce;" horiz-adv-x="350" 
d="M268 714v-714h-186v714h186zM228 767l-39 46h-28l-39 -46h-128l111 129h142l111 -129h-130z" />
    <glyph glyph-name="Idieresis" unicode="&#xcf;" horiz-adv-x="350" 
d="M268 714v-714h-186v714h186zM4 896h139v-129h-139v129zM210 896h139v-129h-139v129z" />
    <glyph glyph-name="Eth" unicode="&#xd0;" horiz-adv-x="803" 
d="M19 288v140h89v286h318c219 0 331 -142 331 -357c0 -214 -112 -357 -331 -357h-318v288h-89zM294 164h102c125 0 171 86 171 193c0 108 -46 193 -171 193h-102v-122h140v-140h-140v-124z" />
    <glyph glyph-name="Ntilde" unicode="&#xd1;" horiz-adv-x="792" 
d="M550 714h165v-714h-223l-222 415h-28v-415h-165v714h223l222 -415h28v415zM296 767h-69c0 73 33 131 108 131c62 0 89 -36 131 -36c20 0 30 11 30 34h69c0 -71 -33 -131 -108 -131c-60 0 -88 37 -131 37c-19 0 -30 -8 -30 -35z" />
    <glyph glyph-name="Ograve" unicode="&#xd2;" horiz-adv-x="806" 
d="M403 727c231 0 357 -158 357 -370s-126 -370 -357 -370s-357 158 -357 370s126 370 357 370zM403 151c111 0 167 86 167 206s-56 206 -167 206s-167 -85 -167 -206c0 -120 56 -206 167 -206zM485 767h-158l-122 129h184z" />
    <glyph glyph-name="Oacute" unicode="&#xd3;" horiz-adv-x="806" 
d="M481 767h-158l96 129h184zM403 727c231 0 357 -158 357 -370s-126 -370 -357 -370s-357 158 -357 370s126 370 357 370zM403 151c111 0 167 86 167 206s-56 206 -167 206s-167 -85 -167 -206c0 -120 56 -206 167 -206z" />
    <glyph glyph-name="Ocircumflex" unicode="&#xd4;" horiz-adv-x="806" 
d="M403 727c231 0 357 -158 357 -370s-126 -370 -357 -370s-357 158 -357 370s126 370 357 370zM403 151c111 0 167 86 167 206s-56 206 -167 206s-167 -85 -167 -206c0 -120 56 -206 167 -206zM456 767l-39 46h-28l-39 -46h-128l111 129h142l111 -129h-130z" />
    <glyph glyph-name="Otilde" unicode="&#xd5;" horiz-adv-x="806" 
d="M403 727c231 0 357 -158 357 -370s-126 -370 -357 -370s-357 158 -357 370s126 370 357 370zM403 151c111 0 167 86 167 206s-56 206 -167 206s-167 -85 -167 -206c0 -120 56 -206 167 -206zM304 767h-69c0 73 33 131 108 131c62 0 89 -36 131 -36c20 0 30 11 30 34h69
c0 -71 -33 -131 -108 -131c-60 0 -88 37 -131 37c-19 0 -30 -8 -30 -35z" />
    <glyph glyph-name="Odieresis" unicode="&#xd6;" horiz-adv-x="806" 
d="M403 727c231 0 357 -158 357 -370s-126 -370 -357 -370s-357 158 -357 370s126 370 357 370zM403 151c111 0 167 86 167 206s-56 206 -167 206s-167 -85 -167 -206c0 -120 56 -206 167 -206zM232 896h139v-129h-139v129zM438 896h139v-129h-139v129z" />
    <glyph glyph-name="multiply" unicode="&#xd7;" horiz-adv-x="668" 
d="M231 292l-157 158l102 103l158 -158l158 158l102 -103l-158 -157l158 -159l-102 -102l-158 158l-158 -158l-102 102z" />
    <glyph glyph-name="Oslash" unicode="&#xd8;" horiz-adv-x="807" 
d="M403 727c83 0 150 -20 206 -56l36 43h116l-85 -102c56 -65 84 -154 84 -255c0 -212 -126 -370 -357 -370c-83 0 -150 20 -206 55l-35 -42h-116l84 101c-56 65 -84 153 -84 256c0 212 126 370 357 370zM232 357c0 -43 5 -80 20 -112l246 294c-26 19 -58 28 -95 28
c-115 0 -171 -86 -171 -210zM403 147c115 0 171 87 171 210c0 41 -7 78 -20 110l-246 -293c27 -17 56 -27 95 -27z" />
    <glyph glyph-name="Ugrave" unicode="&#xd9;" horiz-adv-x="772" 
d="M512 714h185v-447c0 -181 -113 -280 -312 -280c-197 0 -310 99 -310 280v447h185v-443c0 -72 46 -120 126 -120s126 48 126 120v443zM473 767h-158l-122 129h184z" />
    <glyph glyph-name="Uacute" unicode="&#xda;" horiz-adv-x="772" 
d="M512 714h185v-447c0 -181 -113 -280 -312 -280c-197 0 -310 99 -310 280v447h185v-443c0 -72 46 -120 126 -120s126 48 126 120v443zM457 767h-158l96 129h184z" />
    <glyph glyph-name="Ucircumflex" unicode="&#xdb;" horiz-adv-x="772" 
d="M512 714h185v-447c0 -181 -113 -280 -312 -280c-197 0 -310 99 -310 280v447h185v-443c0 -72 46 -120 126 -120s126 48 126 120v443zM438 767l-39 46h-28l-39 -46h-128l111 129h142l111 -129h-130z" />
    <glyph glyph-name="Udieresis" unicode="&#xdc;" horiz-adv-x="772" 
d="M512 714h185v-447c0 -181 -113 -280 -312 -280c-197 0 -310 99 -310 280v447h185v-443c0 -72 46 -120 126 -120s126 48 126 120v443zM214 896h139v-129h-139v129zM420 896h139v-129h-139v129z" />
    <glyph glyph-name="Yacute" unicode="&#xdd;" horiz-adv-x="701" 
d="M336 454h28l130 260h194l-245 -471v-243h-186v244l-244 470h192zM415 767h-158l96 129h184z" />
    <glyph glyph-name="Thorn" unicode="&#xde;" horiz-adv-x="703" 
d="M263 585h136c164 0 258 -83 258 -227c0 -145 -94 -229 -258 -229h-136v-129h-186v714h186v-129zM263 288h114c64 0 90 26 90 70c0 45 -26 68 -90 68h-114v-138z" />
    <glyph glyph-name="germandbls" unicode="&#xdf;" horiz-adv-x="658" 
d="M507 408v-28c71 -24 117 -91 117 -172c0 -131 -88 -208 -227 -208h-71v136h36c56 0 88 33 88 88c0 59 -34 93 -98 93h-12v141h12c35 0 55 29 55 65c0 39 -25 67 -66 67c-49 0 -72 -33 -72 -93v-497h-174v378h-81v142h83c0 136 106 212 249 212c131 0 233 -74 233 -197
c0 -57 -31 -107 -72 -127z" />
    <glyph glyph-name="agrave" unicode="&#xe0;" horiz-adv-x="604" 
d="M293 533c147 0 248 -52 248 -205v-328h-159v40h-28c-31 -35 -70 -53 -137 -53c-115 0 -182 83 -182 175c0 81 61 173 219 173h120v9c0 49 -27 66 -71 66s-65 -17 -69 -45h-172c3 101 98 168 231 168zM374 205v31h-84c-48 0 -81 -21 -81 -60c0 -40 27 -61 74 -61
c57 0 91 39 91 90zM397 582h-152l-122 145h178z" />
    <glyph glyph-name="aacute" unicode="&#xe1;" horiz-adv-x="604" 
d="M293 533c147 0 248 -52 248 -205v-328h-159v40h-28c-31 -35 -70 -53 -137 -53c-115 0 -182 83 -182 175c0 81 61 173 219 173h120v9c0 49 -27 66 -71 66s-65 -17 -69 -45h-172c3 101 98 168 231 168zM374 205v31h-84c-48 0 -81 -21 -81 -60c0 -40 27 -61 74 -61
c57 0 91 39 91 90zM355 582h-152l96 145h178z" />
    <glyph glyph-name="acircumflex" unicode="&#xe2;" horiz-adv-x="604" 
d="M293 533c147 0 248 -52 248 -205v-328h-159v40h-28c-31 -35 -70 -53 -137 -53c-115 0 -182 83 -182 175c0 81 61 173 219 173h120v9c0 49 -27 66 -71 66s-65 -17 -69 -45h-172c3 101 98 168 231 168zM374 205v31h-84c-48 0 -81 -21 -81 -60c0 -40 27 -61 74 -61
c57 0 91 39 91 90zM290 637l-44 -55h-123l112 145h140l112 -145h-125l-44 55h-28z" />
    <glyph glyph-name="atilde" unicode="&#xe3;" horiz-adv-x="604" 
d="M293 533c147 0 248 -52 248 -205v-328h-159v40h-28c-31 -35 -70 -53 -137 -53c-115 0 -182 83 -182 175c0 81 61 173 219 173h120v9c0 49 -27 66 -71 66s-65 -17 -69 -45h-172c3 101 98 168 231 168zM374 205v31h-84c-48 0 -81 -21 -81 -60c0 -40 27 -61 74 -61
c57 0 91 39 91 90zM205 582h-69c0 83 33 145 108 145c61 0 88 -48 130 -48c19 0 30 20 30 48h69c0 -80 -33 -145 -108 -145c-61 0 -88 48 -130 48c-19 0 -30 -19 -30 -48z" />
    <glyph glyph-name="adieresis" unicode="&#xe4;" horiz-adv-x="604" 
d="M293 533c147 0 248 -52 248 -205v-328h-159v40h-28c-31 -35 -70 -53 -137 -53c-115 0 -182 83 -182 175c0 81 61 173 219 173h120v9c0 49 -27 66 -71 66s-65 -17 -69 -45h-172c3 101 98 168 231 168zM374 205v31h-84c-48 0 -81 -21 -81 -60c0 -40 27 -61 74 -61
c57 0 91 39 91 90zM139 727h139v-145h-139v145zM345 727h139v-145h-139v145z" />
    <glyph glyph-name="aring" unicode="&#xe5;" horiz-adv-x="604" 
d="M293 533c147 0 248 -52 248 -205v-328h-159v40h-28c-31 -35 -70 -53 -137 -53c-115 0 -182 83 -182 175c0 81 61 173 219 173h120v9c0 49 -27 66 -71 66s-65 -17 -69 -45h-172c3 101 98 168 231 168zM374 205v31h-84c-48 0 -81 -21 -81 -60c0 -40 27 -61 74 -61
c57 0 91 39 91 90zM304 805c69 0 124 -53 124 -120c0 -66 -55 -119 -124 -119c-68 0 -124 53 -124 119c0 67 56 120 124 120zM304 639c25 0 46 21 46 46c0 27 -21 47 -46 47s-46 -20 -46 -47c0 -25 21 -46 46 -46z" />
    <glyph glyph-name="ae" unicode="&#xe6;" horiz-adv-x="927" 
d="M630 129c41 0 64 12 76 39h176c-23 -115 -103 -181 -252 -181c-80 0 -141 30 -184 79h-26c-44 -52 -110 -79 -186 -79c-128 0 -199 71 -199 176c0 81 64 173 219 173h112v8c0 48 -25 66 -69 66c-39 0 -58 -16 -63 -45h-172c3 98 91 168 226 168c71 0 126 -19 165 -56h27
c37 33 88 56 156 56c149 0 250 -100 250 -256v-41h-355c7 -67 34 -107 99 -107zM366 205v31h-81c-48 0 -76 -22 -76 -61c0 -40 26 -61 69 -61c56 0 88 40 88 91zM628 408c-49 0 -78 -26 -90 -71h171c-8 47 -33 71 -81 71z" />
    <glyph glyph-name="ccedilla" unicode="&#xe7;" horiz-adv-x="601" 
d="M387 186h171c-11 -117 -111 -199 -246 -199l-16 -45h16c10 8 24 12 42 12c47 0 83 -34 83 -91c0 -51 -36 -103 -124 -103c-75 0 -115 46 -115 90h83c3 -13 12 -27 35 -27c21 0 34 14 34 33c0 21 -14 33 -35 33c-13 0 -24 -4 -31 -13h-69l44 115
c-133 20 -218 116 -218 269c0 169 108 273 269 273c135 0 232 -75 243 -189h-171c-9 31 -33 47 -71 47c-71 0 -96 -60 -96 -131c0 -72 26 -131 96 -131c43 0 71 21 76 57z" />
    <glyph glyph-name="egrave" unicode="&#xe8;" horiz-adv-x="614" 
d="M393 168h176c-23 -113 -106 -181 -255 -181c-165 0 -273 102 -273 273c0 170 106 273 269 273c165 0 263 -100 263 -256v-40h-360c7 -71 39 -108 104 -108c43 0 65 12 76 39zM310 409c-51 0 -77 -24 -90 -68h175c-9 45 -38 68 -85 68zM415 582h-152l-122 145h178z" />
    <glyph glyph-name="eacute" unicode="&#xe9;" horiz-adv-x="614" 
d="M393 168h176c-23 -113 -106 -181 -255 -181c-165 0 -273 102 -273 273c0 170 106 273 269 273c165 0 263 -100 263 -256v-40h-360c7 -71 39 -108 104 -108c43 0 65 12 76 39zM310 409c-51 0 -77 -24 -90 -68h175c-9 45 -38 68 -85 68zM380 582h-152l96 145h178z" />
    <glyph glyph-name="ecircumflex" unicode="&#xea;" horiz-adv-x="614" 
d="M393 168h176c-23 -113 -106 -181 -255 -181c-165 0 -273 102 -273 273c0 170 106 273 269 273c165 0 263 -100 263 -256v-40h-360c7 -71 39 -108 104 -108c43 0 65 12 76 39zM310 409c-51 0 -77 -24 -90 -68h175c-9 45 -38 68 -85 68zM292 637l-44 -55h-123l112 145h140
l112 -145h-125l-44 55h-28z" />
    <glyph glyph-name="edieresis" unicode="&#xeb;" horiz-adv-x="614" 
d="M393 168h176c-23 -113 -106 -181 -255 -181c-165 0 -273 102 -273 273c0 170 106 273 269 273c165 0 263 -100 263 -256v-40h-360c7 -71 39 -108 104 -108c43 0 65 12 76 39zM310 409c-51 0 -77 -24 -90 -68h175c-9 45 -38 68 -85 68zM140 727h139v-145h-139v145z
M346 727h139v-145h-139v145z" />
    <glyph glyph-name="igrave" unicode="&#xec;" horiz-adv-x="314" 
d="M70 520h174v-520h-174v520zM245 582h-152l-122 145h178z" />
    <glyph glyph-name="iacute" unicode="&#xed;" horiz-adv-x="312" 
d="M69 520h174v-520h-174v520zM232 582h-152l96 145h178z" />
    <glyph glyph-name="icircumflex" unicode="&#xee;" horiz-adv-x="312" 
d="M69 520h174v-520h-174v520zM142 637l-44 -55h-123l112 145h140l112 -145h-125l-44 55h-28z" />
    <glyph glyph-name="idieresis" unicode="&#xef;" horiz-adv-x="312" 
d="M69 520h174v-520h-174v520zM-15 727h139v-145h-139v145zM191 727h139v-145h-139v145z" />
    <glyph glyph-name="eth" unicode="&#xf0;" 
d="M132 727h205c35 -23 73 -55 110 -96h109v-72h-53c49 -76 86 -170 86 -287c0 -166 -99 -285 -275 -285c-171 0 -273 112 -273 267c0 159 101 259 209 259c51 0 82 -13 101 -29h28c-11 25 -28 50 -49 75h-196v72h125c-45 39 -92 73 -127 96zM315 129c70 0 99 54 99 125
s-29 125 -99 125c-71 0 -100 -54 -100 -125s29 -125 100 -125z" />
    <glyph glyph-name="ntilde" unicode="&#xf1;" horiz-adv-x="654" 
d="M403 533c131 0 188 -82 188 -219v-314h-174v285c0 60 -27 96 -82 96c-59 0 -92 -50 -92 -107v-274h-174v520h168v-45h28c32 39 73 58 138 58zM231 582h-69c0 83 33 145 108 145c61 0 88 -48 130 -48c19 0 30 20 30 48h69c0 -80 -33 -145 -108 -145c-61 0 -88 48 -130 48
c-19 0 -30 -19 -30 -48z" />
    <glyph glyph-name="ograve" unicode="&#xf2;" horiz-adv-x="637" 
d="M399 582h-152l-122 145h178zM319 533c167 0 277 -105 277 -273s-110 -273 -277 -273c-166 0 -278 105 -278 273s112 273 278 273zM319 129c72 0 103 58 103 131c0 72 -31 131 -103 131c-73 0 -104 -59 -104 -131c0 -73 31 -131 104 -131z" />
    <glyph glyph-name="oacute" unicode="&#xf3;" horiz-adv-x="637" 
d="M319 533c167 0 277 -105 277 -273s-110 -273 -277 -273c-166 0 -278 105 -278 273s112 273 278 273zM319 129c72 0 103 58 103 131c0 72 -31 131 -103 131c-73 0 -104 -59 -104 -131c0 -73 31 -131 104 -131zM387 582h-152l96 145h178z" />
    <glyph glyph-name="ocircumflex" unicode="&#xf4;" horiz-adv-x="637" 
d="M319 533c167 0 277 -105 277 -273s-110 -273 -277 -273c-166 0 -278 105 -278 273s112 273 278 273zM319 129c72 0 103 58 103 131c0 72 -31 131 -103 131c-73 0 -104 -59 -104 -131c0 -73 31 -131 104 -131zM303 637l-44 -55h-123l112 145h140l112 -145h-125l-44 55h-28
z" />
    <glyph glyph-name="otilde" unicode="&#xf5;" horiz-adv-x="637" 
d="M319 533c167 0 277 -105 277 -273s-110 -273 -277 -273c-166 0 -278 105 -278 273s112 273 278 273zM319 129c72 0 103 58 103 131c0 72 -31 131 -103 131c-73 0 -104 -59 -104 -131c0 -73 31 -131 104 -131zM219 582h-69c0 83 33 145 108 145c61 0 88 -48 130 -48
c19 0 30 20 30 48h69c0 -80 -33 -145 -108 -145c-61 0 -88 48 -130 48c-19 0 -30 -19 -30 -48z" />
    <glyph glyph-name="odieresis" unicode="&#xf6;" horiz-adv-x="637" 
d="M319 533c167 0 277 -105 277 -273s-110 -273 -277 -273c-166 0 -278 105 -278 273s112 273 278 273zM319 129c72 0 103 58 103 131c0 72 -31 131 -103 131c-73 0 -104 -59 -104 -131c0 -73 31 -131 104 -131zM146 727h139v-145h-139v145zM352 727h139v-145h-139v145z" />
    <glyph glyph-name="divide" unicode="&#xf7;" horiz-adv-x="689" 
d="M442 0h-195v151h195v-151zM615 366v-147h-541v147h541zM442 434h-195v151h195v-151z" />
    <glyph glyph-name="oslash" unicode="&#xf8;" horiz-adv-x="637" 
d="M319 533c61 0 113 -13 157 -40l24 27h96l-65 -73c41 -47 65 -110 65 -187c0 -168 -110 -273 -277 -273c-61 0 -114 13 -158 40l-24 -27h-96l64 73c-41 47 -64 110 -64 187c0 168 112 273 278 273zM319 123c77 0 111 60 111 137c0 22 -3 43 -9 62l-162 -184
c16 -10 36 -15 60 -15zM207 260c0 -23 3 -44 9 -62l162 183c-17 11 -37 16 -59 16c-79 0 -112 -61 -112 -137z" />
    <glyph glyph-name="ugrave" unicode="&#xf9;" horiz-adv-x="654" 
d="M251 -13c-131 0 -188 82 -188 219v314h174v-285c0 -60 27 -96 82 -96c59 0 92 50 92 107v274h174v-520h-168v45h-28c-32 -39 -73 -58 -138 -58zM402 582h-152l-122 145h178z" />
    <glyph glyph-name="uacute" unicode="&#xfa;" horiz-adv-x="654" 
d="M251 -13c-131 0 -188 82 -188 219v314h174v-285c0 -60 27 -96 82 -96c59 0 92 50 92 107v274h174v-520h-168v45h-28c-32 -39 -73 -58 -138 -58zM397 582h-152l96 145h178z" />
    <glyph glyph-name="ucircumflex" unicode="&#xfb;" horiz-adv-x="654" 
d="M251 -13c-131 0 -188 82 -188 219v314h174v-285c0 -60 27 -96 82 -96c59 0 92 50 92 107v274h174v-520h-168v45h-28c-32 -39 -73 -58 -138 -58zM309 637l-44 -55h-123l112 145h140l112 -145h-125l-44 55h-28z" />
    <glyph glyph-name="udieresis" unicode="&#xfc;" horiz-adv-x="654" 
d="M251 -13c-131 0 -188 82 -188 219v314h174v-285c0 -60 27 -96 82 -96c59 0 92 50 92 107v274h174v-520h-168v45h-28c-32 -39 -73 -58 -138 -58zM152 727h139v-145h-139v145zM358 727h139v-145h-139v145z" />
    <glyph glyph-name="yacute" unicode="&#xfd;" horiz-adv-x="628" 
d="M440 520h172l-315 -720h-172l109 257l-218 463h174l117 -252h28zM384 582h-152l96 145h178z" />
    <glyph glyph-name="thorn" unicode="&#xfe;" horiz-adv-x="658" 
d="M401 -13c-65 0 -103 22 -130 57h-28v-244h-174v927h174v-251h28c28 35 64 57 132 57c134 0 214 -114 214 -273s-83 -273 -216 -273zM341 391c-73 0 -105 -61 -105 -131s32 -131 105 -131s102 61 102 131s-29 131 -102 131z" />
    <glyph glyph-name="ydieresis" unicode="&#xff;" horiz-adv-x="628" 
d="M440 520h172l-315 -720h-172l109 257l-218 463h174l117 -252h28zM146 727h139v-145h-139v145zM352 727h139v-145h-139v145z" />
    <glyph glyph-name="Amacron" unicode="&#x100;" horiz-adv-x="746" 
d="M512 714l214 -714h-185l-52 185h-240l-51 -185h-181l214 714h281zM347 538l-58 -207h159l-57 207h-44zM215 786v93h314v-93h-314z" />
    <glyph glyph-name="amacron" unicode="&#x101;" horiz-adv-x="604" 
d="M293 533c147 0 248 -52 248 -205v-328h-159v40h-28c-31 -35 -70 -53 -137 -53c-115 0 -182 83 -182 175c0 81 61 173 219 173h120v9c0 49 -27 66 -71 66s-65 -17 -69 -45h-172c3 101 98 168 231 168zM374 205v31h-84c-48 0 -81 -21 -81 -60c0 -40 27 -61 74 -61
c57 0 91 39 91 90zM146 607v98h314v-98h-314z" />
    <glyph glyph-name="Abreve" unicode="&#x102;" horiz-adv-x="743" 
d="M512 714l214 -714h-185l-52 185h-240l-51 -185h-181l214 714h281zM347 538l-58 -207h159l-57 207h-44zM422 896h97c-3 -77 -49 -129 -148 -129c-97 0 -145 52 -148 129h98c1 -27 19 -45 50 -45s50 18 51 45z" />
    <glyph glyph-name="abreve" unicode="&#x103;" horiz-adv-x="604" 
d="M293 533c147 0 248 -52 248 -205v-328h-159v40h-28c-31 -35 -70 -53 -137 -53c-115 0 -182 83 -182 175c0 81 61 173 219 173h120v9c0 49 -27 66 -71 66s-65 -17 -69 -45h-172c3 101 98 168 231 168zM374 205v31h-84c-48 0 -81 -21 -81 -60c0 -40 27 -61 74 -61
c57 0 91 39 91 90zM359 727h97c0 -84 -47 -145 -148 -145s-149 61 -149 145h98c0 -35 16 -56 51 -56c33 0 51 21 51 56z" />
    <glyph glyph-name="Aogonek" unicode="&#x104;" horiz-adv-x="746" 
d="M512 714l214 -714c-33 -19 -50 -43 -50 -64s15 -41 52 -41v-95h-36c-108 0 -139 49 -139 97c0 35 17 79 76 103h-88l-52 185h-240l-51 -185h-181l214 714h281zM347 538l-58 -207h159l-57 207h-44z" />
    <glyph glyph-name="aogonek" unicode="&#x105;" horiz-adv-x="604" 
d="M293 533c147 0 248 -52 248 -205v-328c-33 -19 -50 -43 -50 -64s15 -41 52 -41v-95h-36c-108 0 -139 49 -139 97c0 35 17 79 76 103h-62v40h-28c-31 -35 -70 -53 -137 -53c-115 0 -182 83 -182 175c0 81 61 173 219 173h120v9c0 49 -27 66 -71 66s-65 -17 -69 -45h-172
c3 101 98 168 231 168zM374 205v31h-84c-48 0 -81 -21 -81 -60c0 -40 27 -61 74 -61c57 0 91 39 91 90z" />
    <glyph glyph-name="Cacute" unicode="&#x106;" horiz-adv-x="768" 
d="M510 243h191c-19 -151 -132 -256 -308 -256c-220 0 -348 148 -348 370s128 370 348 370c169 0 278 -98 302 -234h-193c-12 47 -53 70 -109 70c-104 0 -158 -85 -158 -206c0 -120 54 -206 158 -206c64 0 108 32 117 92zM476 767h-158l96 129h184z" />
    <glyph glyph-name="cacute" unicode="&#x107;" horiz-adv-x="601" 
d="M387 186h171c-11 -118 -112 -199 -248 -199c-161 0 -269 102 -269 273c0 169 108 273 269 273c135 0 232 -75 243 -189h-171c-9 31 -33 47 -71 47c-71 0 -96 -60 -96 -131c0 -72 26 -131 96 -131c43 0 71 21 76 57zM374 582h-152l96 145h178z" />
    <glyph glyph-name="Ccaron" unicode="&#x10c;" horiz-adv-x="768" 
d="M510 243h191c-19 -151 -132 -256 -308 -256c-220 0 -348 148 -348 370s128 370 348 370c169 0 278 -98 302 -234h-193c-12 47 -53 70 -109 70c-104 0 -158 -85 -158 -206c0 -120 54 -206 158 -206c64 0 108 32 117 92zM349 896l39 -46h28l39 46h128l-111 -129h-142
l-111 129h130z" />
    <glyph glyph-name="ccaron" unicode="&#x10d;" horiz-adv-x="601" 
d="M387 186h171c-11 -118 -112 -199 -248 -199c-161 0 -269 102 -269 273c0 169 108 273 269 273c135 0 232 -75 243 -189h-171c-9 31 -33 47 -71 47c-71 0 -96 -60 -96 -131c0 -72 26 -131 96 -131c43 0 71 21 76 57zM326 672l44 55h123l-112 -145h-140l-112 145h125
l44 -55h28z" />
    <glyph glyph-name="Dcaron" unicode="&#x10e;" horiz-adv-x="774" 
d="M77 714h318c219 0 331 -142 331 -357c0 -214 -112 -357 -331 -357h-318v714zM263 164h102c125 0 171 86 171 193c0 108 -46 193 -171 193h-102v-386zM305 896l39 -46h28l39 46h128l-111 -129h-142l-111 129h130z" />
    <glyph glyph-name="dcaron" unicode="&#x10f;" horiz-adv-x="821" 
d="M845 565l-90 -90h-95l90 90v28h-79v134h174v-162zM257 533c65 0 103 -22 130 -57h28v251h174v-727h-168v44h-28c-28 -35 -68 -57 -136 -57c-136 0 -216 114 -216 273s83 273 216 273zM317 129c73 0 105 61 105 131s-32 131 -105 131s-102 -61 -102 -131s29 -131 102 -131
z" />
    <glyph glyph-name="Dcroat" unicode="&#x110;" horiz-adv-x="803" 
d="M19 288v140h89v286h318c219 0 331 -142 331 -357c0 -214 -112 -357 -331 -357h-318v288h-89zM294 164h102c125 0 171 86 171 193c0 108 -46 193 -171 193h-102v-122h140v-140h-140v-124z" />
    <glyph glyph-name="dslash" unicode="&#x111;" horiz-adv-x="685" 
d="M257 533c65 0 103 -22 130 -57h28v102h-151v72h151v77h174v-77h77v-72h-77v-578h-168v44h-28c-28 -35 -68 -57 -136 -57c-136 0 -216 114 -216 273s83 273 216 273zM317 129c73 0 105 61 105 131s-32 131 -105 131s-102 -61 -102 -131s29 -131 102 -131z" />
    <glyph glyph-name="Emacron" unicode="&#x112;" horiz-adv-x="675" 
d="M539 284h-276v-120h371v-164h-557v714h548v-164h-362v-106h276v-160zM198 786v93h314v-93h-314z" />
    <glyph glyph-name="emacron" unicode="&#x113;" horiz-adv-x="614" 
d="M393 168h176c-23 -113 -106 -181 -255 -181c-165 0 -273 102 -273 273c0 170 106 273 269 273c165 0 263 -100 263 -256v-40h-360c7 -71 39 -108 104 -108c43 0 65 12 76 39zM310 409c-51 0 -77 -24 -90 -68h175c-9 45 -38 68 -85 68zM160 607v98h314v-98h-314z" />
    <glyph glyph-name="Edotaccent" unicode="&#x116;" horiz-adv-x="675" 
d="M539 284h-276v-120h371v-164h-557v714h548v-164h-362v-106h276v-160zM268 896h174v-129h-174v129z" />
    <glyph glyph-name="edotaccent" unicode="&#x117;" horiz-adv-x="614" 
d="M393 168h176c-23 -113 -106 -181 -255 -181c-165 0 -273 102 -273 273c0 170 106 273 269 273c165 0 263 -100 263 -256v-40h-360c7 -71 39 -108 104 -108c43 0 65 12 76 39zM310 409c-51 0 -77 -24 -90 -68h175c-9 45 -38 68 -85 68zM224 727h174v-145h-174v145z" />
    <glyph glyph-name="Eogonek" unicode="&#x118;" horiz-adv-x="675" 
d="M539 284h-276v-120h371v-164c-33 -19 -50 -43 -50 -64s15 -41 52 -41v-95h-36c-108 0 -139 49 -139 97c0 35 17 79 76 103h-460v714h548v-164h-362v-106h276v-160z" />
    <glyph glyph-name="eogonek" unicode="&#x119;" horiz-adv-x="614" 
d="M393 168h176c-15 -71 -43 -111 -107 -150c-37 -23 -50 -42 -50 -63s15 -41 52 -41v-95h-36c-108 0 -139 49 -139 97c0 23 7 48 28 71h-3c-165 0 -273 102 -273 273c0 170 106 273 269 273c165 0 263 -100 263 -256v-40h-360c7 -71 39 -108 104 -108c43 0 65 12 76 39z
M310 409c-51 0 -77 -24 -90 -68h175c-9 45 -38 68 -85 68z" />
    <glyph glyph-name="Ecaron" unicode="&#x11a;" horiz-adv-x="675" 
d="M539 284h-276v-120h371v-164h-557v714h548v-164h-362v-106h276v-160zM303 896l39 -46h28l39 46h128l-111 -129h-142l-111 129h130z" />
    <glyph glyph-name="ecaron" unicode="&#x11b;" horiz-adv-x="614" 
d="M393 168h176c-23 -113 -106 -181 -255 -181c-165 0 -273 102 -273 273c0 170 106 273 269 273c165 0 263 -100 263 -256v-40h-360c7 -71 39 -108 104 -108c43 0 65 12 76 39zM310 409c-51 0 -77 -24 -90 -68h175c-9 45 -38 68 -85 68zM324 672l44 55h123l-112 -145h-140
l-112 145h125l44 -55h28z" />
    <glyph glyph-name="uni0122" unicode="&#x122;" horiz-adv-x="784" 
d="M400 408h322v-91c0 -168 -92 -330 -321 -330c-228 0 -353 148 -353 370c0 219 125 370 353 370c171 0 278 -94 304 -229h-192c-13 43 -53 65 -113 65c-104 0 -162 -81 -162 -206c0 -127 58 -209 165 -209c84 0 132 48 135 113h-138v147zM407 -240h-98l77 63v22h-67v103
h165v-125z" />
    <glyph glyph-name="uni0123" unicode="&#x123;" horiz-adv-x="660" 
d="M423 520h168v-494c0 -150 -116 -239 -272 -239c-148 0 -251 63 -259 184h172c4 -31 29 -53 85 -53c76 0 100 60 100 125v25h-26c-20 -31 -57 -57 -125 -57c-137 0 -225 109 -225 261s89 261 226 261c67 0 112 -29 128 -57h28v44zM318 153c68 0 106 51 106 119
s-38 119 -106 119c-65 0 -103 -54 -103 -119s38 -119 103 -119zM309 770h98l-77 -63v-22h67v-103h-165v125z" />
    <glyph glyph-name="Itilde" unicode="&#x128;" horiz-adv-x="350" 
d="M268 714v-714h-186v714h186zM76 767h-69c0 73 33 131 108 131c62 0 89 -36 131 -36c20 0 30 11 30 34h69c0 -71 -33 -131 -108 -131c-60 0 -88 37 -131 37c-19 0 -30 -8 -30 -35z" />
    <glyph glyph-name="itilde" unicode="&#x129;" horiz-adv-x="312" 
d="M69 520h174v-520h-174v520zM58 582h-69c0 83 33 145 108 145c61 0 88 -48 130 -48c19 0 30 20 30 48h69c0 -80 -33 -145 -108 -145c-61 0 -88 48 -130 48c-19 0 -30 -19 -30 -48z" />
    <glyph glyph-name="Imacron" unicode="&#x12a;" horiz-adv-x="350" 
d="M268 714v-714h-186v714h186zM19 786v93h314v-93h-314z" />
    <glyph glyph-name="imacron" unicode="&#x12b;" horiz-adv-x="312" 
d="M69 520h174v-520h-174v520zM0 607v98h314v-98h-314z" />
    <glyph glyph-name="Iogonek" unicode="&#x12e;" horiz-adv-x="350" 
d="M268 714v-714c-33 -19 -50 -43 -50 -64s15 -41 52 -41v-95h-36c-108 0 -139 49 -139 97c0 35 17 79 76 103h-89v714h186z" />
    <glyph glyph-name="iogonek" unicode="&#x12f;" horiz-adv-x="312" 
d="M69 520h174v-520c-33 -19 -50 -43 -50 -64s15 -41 52 -41v-95h-36c-108 0 -139 49 -139 97c0 35 17 79 76 103h-77v520zM69 727h174v-145h-174v145z" />
    <glyph glyph-name="dotlessi" unicode="&#x131;" horiz-adv-x="312" 
d="M69 520h174v-520h-174v520z" />
    <glyph glyph-name="uni0136" unicode="&#x136;" horiz-adv-x="775" 
d="M263 220v-220h-186v714h186v-260l247 260h212l-202 -219l237 -495h-200l-160 330h-28zM417 -240h-98l77 63v22h-67v103h165v-125z" />
    <glyph glyph-name="uni0137" unicode="&#x137;" horiz-adv-x="623" 
d="M617 0h-180l-105 221h-28l-60 -69v-152h-175v727h175v-378l160 171h191l-147 -161zM348 -240h-98l77 63v22h-67v103h165v-125z" />
    <glyph glyph-name="kgreenlandic" unicode="&#x138;" horiz-adv-x="627" 
d="M617 0h-180l-105 222h-28l-60 -70v-152h-175v520h175v-171l160 171h191l-147 -161z" />
    <glyph glyph-name="Lacute" unicode="&#x139;" horiz-adv-x="669" 
d="M263 164h365v-164h-551v714h186v-550zM248 767h-158l96 129h184z" />
    <glyph glyph-name="lacute" unicode="&#x13a;" horiz-adv-x="312" 
d="M69 727h174v-727h-174v727zM234 767h-158l96 129h184z" />
    <glyph glyph-name="uni013B" unicode="&#x13b;" horiz-adv-x="669" 
d="M263 164h365v-164h-551v714h186v-550zM356 -240h-98l77 63v22h-67v103h165v-125z" />
    <glyph glyph-name="uni013C" unicode="&#x13c;" horiz-adv-x="312" 
d="M69 727h174v-727h-174v727zM162 -240h-98l77 63v22h-67v103h165v-125z" />
    <glyph glyph-name="Lcaron" unicode="&#x13d;" horiz-adv-x="669" 
d="M569 552l-90 -90h-95l90 90v28h-79v134h174v-162zM263 164h365v-164h-551v714h186v-550z" />
    <glyph glyph-name="lcaron" unicode="&#x13e;" horiz-adv-x="475" 
d="M499 565l-90 -90h-95l90 90v28h-79v134h174v-162zM69 727h174v-727h-174v727z" />
    <glyph glyph-name="Lslash" unicode="&#x141;" horiz-adv-x="701" 
d="M20 356l89 35v323h186v-248l177 71v-155l-177 -71v-148h365v-163h-551v236l-89 -35v155z" />
    <glyph glyph-name="lslash" unicode="&#x142;" horiz-adv-x="394" 
d="M110 727h174v-249l95 42v-155l-95 -42v-323h-174v245l-95 -42v155l95 42v327z" />
    <glyph glyph-name="Nacute" unicode="&#x143;" horiz-adv-x="792" 
d="M550 714h165v-714h-223l-222 415h-28v-415h-165v714h223l222 -415h28v415zM464 767h-158l96 129h184z" />
    <glyph glyph-name="nacute" unicode="&#x144;" horiz-adv-x="654" 
d="M403 533c131 0 188 -82 188 -219v-314h-174v285c0 60 -27 96 -82 96c-59 0 -92 -50 -92 -107v-274h-174v520h168v-45h28c32 39 73 58 138 58zM403 582h-152l96 145h178z" />
    <glyph glyph-name="uni0145" unicode="&#x145;" horiz-adv-x="792" 
d="M550 714h165v-714h-223l-222 415h-28v-415h-165v714h223l222 -415h28v415zM407 -240h-98l77 63v22h-67v103h165v-125z" />
    <glyph glyph-name="uni0146" unicode="&#x146;" horiz-adv-x="654" 
d="M403 533c131 0 188 -82 188 -219v-314h-174v285c0 60 -27 96 -82 96c-59 0 -92 -50 -92 -107v-274h-174v520h168v-45h28c32 39 73 58 138 58zM336 -240h-98l77 63v22h-67v103h165v-125z" />
    <glyph glyph-name="Ncaron" unicode="&#x147;" horiz-adv-x="792" 
d="M550 714h165v-714h-223l-222 415h-28v-415h-165v714h223l222 -415h28v415zM344 896l39 -46h28l39 46h128l-111 -129h-142l-111 129h130z" />
    <glyph glyph-name="ncaron" unicode="&#x148;" horiz-adv-x="654" 
d="M403 533c131 0 188 -82 188 -219v-314h-174v285c0 60 -27 96 -82 96c-59 0 -92 -50 -92 -107v-274h-174v520h168v-45h28c32 39 73 58 138 58zM336 672l44 55h123l-112 -145h-140l-112 145h125l44 -55h28z" />
    <glyph glyph-name="Eng" unicode="&#x14a;" horiz-adv-x="792" 
d="M550 714h165v-694c0 -146 -94 -220 -237 -220h-44v147h37c51 0 70 16 77 53h-56l-222 415h-28v-415h-165v714h223l222 -415h28v415z" />
    <glyph glyph-name="eng" unicode="&#x14b;" horiz-adv-x="654" 
d="M591 314v-323c0 -151 -103 -191 -218 -191h-66v142h46c45 0 64 27 64 64v280c0 60 -27 96 -82 96c-59 0 -92 -50 -92 -107v-275h-174v520h168v-46h28c32 39 73 59 138 59c131 0 188 -82 188 -219z" />
    <glyph glyph-name="Omacron" unicode="&#x14c;" horiz-adv-x="808" 
d="M403 727c231 0 357 -158 357 -370s-126 -370 -357 -370s-357 158 -357 370s126 370 357 370zM403 151c111 0 167 86 167 206s-56 206 -167 206s-167 -85 -167 -206c0 -120 56 -206 167 -206zM247 786v93h314v-93h-314z" />
    <glyph glyph-name="omacron" unicode="&#x14d;" horiz-adv-x="637" 
d="M319 533c167 0 277 -105 277 -273s-110 -273 -277 -273c-166 0 -278 105 -278 273s112 273 278 273zM319 129c72 0 103 58 103 131c0 72 -31 131 -103 131c-73 0 -104 -59 -104 -131c0 -73 31 -131 104 -131zM161 607v98h314v-98h-314z" />
    <glyph glyph-name="Ohungarumlaut" unicode="&#x150;" horiz-adv-x="808" 
d="M403 727c231 0 357 -158 357 -370s-126 -370 -357 -370s-357 158 -357 370s126 370 357 370zM403 151c111 0 167 86 167 206s-56 206 -167 206s-167 -85 -167 -206c0 -120 56 -206 167 -206zM460 896l-103 -129h-134l78 129h159zM662 896l-103 -129h-134l78 129h159z" />
    <glyph glyph-name="ohungarumlaut" unicode="&#x151;" horiz-adv-x="637" 
d="M319 533c167 0 277 -105 277 -273s-110 -273 -277 -273c-166 0 -278 105 -278 273s112 273 278 273zM319 129c72 0 103 58 103 131c0 72 -31 131 -103 131c-73 0 -104 -59 -104 -131c0 -73 31 -131 104 -131zM373 727l-97 -145h-134l72 145h159zM575 727l-97 -145h-134
l72 145h159z" />
    <glyph glyph-name="OE" unicode="&#x152;" horiz-adv-x="1094" 
d="M958 284h-223v-120h318v-164h-504v38h-28c-41 -31 -94 -51 -161 -51c-179 0 -314 133 -314 370s135 370 314 370c67 0 120 -20 161 -51h28v38h495v-164h-309v-106h223v-160zM404 151c68 0 118 27 145 70v271c-27 43 -77 71 -145 71c-109 0 -168 -85 -168 -206
s59 -206 168 -206z" />
    <glyph glyph-name="oe" unicode="&#x153;" horiz-adv-x="984" 
d="M687 129c41 0 61 12 76 39h176c-25 -115 -103 -181 -252 -181c-72 0 -128 24 -171 65h-28c-43 -43 -101 -65 -173 -65c-163 0 -274 109 -274 273s111 273 274 273c73 0 134 -26 178 -70h30c37 40 94 70 170 70c147 0 250 -99 250 -251v-46h-355c7 -67 34 -107 99 -107z
M316 129c72 0 100 58 100 131c0 72 -28 131 -100 131c-71 0 -101 -59 -101 -131c0 -73 30 -131 101 -131zM685 408c-49 0 -78 -26 -90 -71h171c-8 47 -33 71 -81 71z" />
    <glyph glyph-name="Racute" unicode="&#x154;" horiz-adv-x="729" 
d="M77 714h349c165 0 261 -86 261 -231c0 -91 -36 -157 -104 -196l103 -287h-186l-89 250h-148v-250h-186v714zM263 405h138c69 0 96 27 96 74c0 48 -27 73 -96 73h-138v-147zM427 767h-158l96 129h184z" />
    <glyph glyph-name="racute" unicode="&#x155;" horiz-adv-x="477" 
d="M453 520v-161h-55c-112 0 -155 -54 -155 -150v-209h-174v520h168v-56h28c11 19 45 56 133 56h55zM294 582h-152l96 145h178z" />
    <glyph glyph-name="uni0156" unicode="&#x156;" horiz-adv-x="729" 
d="M77 714h349c165 0 261 -86 261 -231c0 -91 -36 -157 -104 -196l103 -287h-186l-89 250h-148v-250h-186v714zM263 405h138c69 0 96 27 96 74c0 48 -27 73 -96 73h-138v-147zM382 -240h-98l77 63v22h-67v103h165v-125z" />
    <glyph glyph-name="uni0157" unicode="&#x157;" horiz-adv-x="477" 
d="M453 520v-161h-55c-112 0 -155 -54 -155 -150v-209h-174v520h168v-56h28c11 19 45 56 133 56h55zM162 -240h-98l77 63v22h-67v103h165v-125z" />
    <glyph glyph-name="Rcaron" unicode="&#x158;" horiz-adv-x="729" 
d="M77 714h349c165 0 261 -86 261 -231c0 -91 -36 -157 -104 -196l103 -287h-186l-89 250h-148v-250h-186v714zM263 405h138c69 0 96 27 96 74c0 48 -27 73 -96 73h-138v-147zM295 896l39 -46h28l39 46h128l-111 -129h-142l-111 129h130z" />
    <glyph glyph-name="rcaron" unicode="&#x159;" horiz-adv-x="477" 
d="M453 520v-161h-55c-112 0 -155 -54 -155 -150v-209h-174v520h168v-56h28c11 19 45 56 133 56h55zM275 672l44 55h123l-112 -145h-140l-112 145h125l44 -55h28z" />
    <glyph glyph-name="Sacute" unicode="&#x15a;" horiz-adv-x="706" 
d="M637 508h-190c-11 48 -49 64 -105 64c-49 0 -91 -19 -91 -62c0 -35 26 -48 69 -55l131 -21c116 -19 204 -83 204 -214c0 -123 -95 -233 -298 -233c-191 0 -300 90 -315 243h190c11 -69 70 -88 133 -88c64 0 103 27 103 67c0 44 -31 59 -82 68l-134 22
c-129 21 -189 95 -189 203c0 123 100 225 281 225c160 0 280 -81 293 -219zM411 767h-158l96 129h184z" />
    <glyph glyph-name="sacute" unicode="&#x15b;" horiz-adv-x="565" 
d="M267 340l85 -12c104 -13 177 -62 177 -168c0 -89 -79 -173 -242 -173s-244 73 -253 184h172c5 -40 32 -60 83 -60c43 0 66 17 66 45c0 29 -20 40 -63 47l-92 15c-88 15 -149 58 -149 146c0 91 69 169 231 169c136 0 218 -65 230 -160h-171c-5 25 -26 38 -63 38
c-29 0 -53 -12 -53 -35s15 -32 42 -36zM345 582h-152l96 145h178z" />
    <glyph glyph-name="Scedilla" unicode="&#x15e;" horiz-adv-x="706" 
d="M637 508h-190c-11 48 -49 64 -105 64c-49 0 -91 -19 -91 -62c0 -35 26 -48 69 -55l131 -21c116 -19 204 -83 204 -214c0 -123 -95 -233 -298 -233h-10l-16 -45h16c10 8 24 12 42 12c47 0 83 -34 83 -91c0 -51 -36 -103 -124 -103c-75 0 -115 46 -115 90h83
c3 -13 12 -27 35 -27c21 0 34 14 34 33c0 21 -14 33 -35 33c-13 0 -24 -4 -31 -13h-69l44 115c-152 19 -239 103 -252 239h190c11 -69 70 -88 133 -88c64 0 103 27 103 67c0 44 -31 59 -82 68l-134 22c-129 21 -189 95 -189 203c0 123 100 225 281 225
c160 0 280 -81 293 -219z" />
    <glyph glyph-name="scedilla" unicode="&#x15f;" horiz-adv-x="565" 
d="M267 340l85 -12c104 -13 177 -62 177 -168c0 -89 -79 -173 -242 -173h-10l-16 -45h16c10 8 24 12 42 12c47 0 83 -34 83 -91c0 -51 -36 -103 -124 -103c-75 0 -115 46 -115 90h83c3 -13 12 -27 35 -27c21 0 34 14 34 33c0 21 -14 33 -35 33c-13 0 -24 -4 -31 -13h-69
l44 116c-121 16 -182 83 -190 179h172c5 -40 32 -60 83 -60c43 0 66 17 66 45c0 29 -20 40 -63 47l-92 15c-88 15 -149 58 -149 146c0 91 69 169 231 169c136 0 218 -65 230 -160h-171c-5 25 -26 38 -63 38c-29 0 -53 -12 -53 -35s15 -32 42 -36z" />
    <glyph glyph-name="Scaron" unicode="&#x160;" horiz-adv-x="706" 
d="M637 508h-190c-11 48 -49 64 -105 64c-49 0 -91 -19 -91 -62c0 -35 26 -48 69 -55l131 -21c116 -19 204 -83 204 -214c0 -123 -95 -233 -298 -233c-191 0 -300 90 -315 243h190c11 -69 70 -88 133 -88c64 0 103 27 103 67c0 44 -31 59 -82 68l-134 22
c-129 21 -189 95 -189 203c0 123 100 225 281 225c160 0 280 -81 293 -219zM298 896l39 -46h28l39 46h128l-111 -129h-142l-111 129h130z" />
    <glyph glyph-name="scaron" unicode="&#x161;" horiz-adv-x="565" 
d="M267 340l85 -12c104 -13 177 -62 177 -168c0 -89 -79 -173 -242 -173s-244 73 -253 184h172c5 -40 32 -60 83 -60c43 0 66 17 66 45c0 29 -20 40 -63 47l-92 15c-88 15 -149 58 -149 146c0 91 69 169 231 169c136 0 218 -65 230 -160h-171c-5 25 -26 38 -63 38
c-29 0 -53 -12 -53 -35s15 -32 42 -36zM298 672l44 55h123l-112 -145h-140l-112 145h125l44 -55h28z" />
    <glyph glyph-name="uni0162" unicode="&#x162;" horiz-adv-x="643" 
d="M628 714v-164h-214v-550h-186v550h-213v164h613zM327 -240h-98l77 63v22h-67v103h165v-125z" />
    <glyph glyph-name="uni0163" unicode="&#x163;" horiz-adv-x="422" 
d="M264 520h104v-142h-104v-188c0 -24 14 -45 51 -45h53v-145h-56c-123 0 -222 31 -222 171v207h-68v142h68v140h174v-140zM246 -240h-98l77 63v22h-67v103h165v-125z" />
    <glyph glyph-name="Tcaron" unicode="&#x164;" horiz-adv-x="643" 
d="M628 714v-164h-214v-550h-186v550h-213v164h613zM269 896l39 -46h28l39 46h128l-111 -129h-142l-111 129h130z" />
    <glyph glyph-name="tcaron" unicode="&#x165;" horiz-adv-x="476" 
d="M516 656l-90 -90h-95l90 90v28h-79v134h174v-162zM264 520h104v-142h-104v-188c0 -24 14 -45 51 -45h53v-145h-56c-123 0 -222 31 -222 171v207h-68v142h68v140h174v-140z" />
    <glyph glyph-name="Tbar" unicode="&#x166;" horiz-adv-x="643" 
d="M628 714v-164h-214v-122h135v-140h-135v-288h-186v288h-135v140h135v122h-213v164h613z" />
    <glyph glyph-name="tbar" unicode="&#x167;" horiz-adv-x="418" 
d="M264 520h104v-119h-104v-66h104v-119h-104v-26c0 -24 14 -45 51 -45h53v-145h-56c-123 0 -222 31 -222 171v45h-68v119h68v66h-68v119h68v140h174v-140z" />
    <glyph glyph-name="Utilde" unicode="&#x168;" horiz-adv-x="772" 
d="M512 714h185v-447c0 -181 -113 -280 -312 -280c-197 0 -310 99 -310 280v447h185v-443c0 -72 46 -120 126 -120s126 48 126 120v443zM286 767h-69c0 73 33 131 108 131c62 0 89 -36 131 -36c20 0 30 11 30 34h69c0 -71 -33 -131 -108 -131c-60 0 -88 37 -131 37
c-19 0 -30 -8 -30 -35z" />
    <glyph glyph-name="utilde" unicode="&#x169;" horiz-adv-x="654" 
d="M251 -13c-131 0 -188 82 -188 219v314h174v-285c0 -60 27 -96 82 -96c59 0 92 50 92 107v274h174v-520h-168v45h-28c-32 -39 -73 -58 -138 -58zM226 582h-69c0 83 33 145 108 145c61 0 88 -48 130 -48c19 0 30 20 30 48h69c0 -80 -33 -145 -108 -145
c-61 0 -88 48 -130 48c-19 0 -30 -19 -30 -48z" />
    <glyph glyph-name="Umacron" unicode="&#x16a;" horiz-adv-x="772" 
d="M512 714h185v-447c0 -181 -113 -280 -312 -280c-197 0 -310 99 -310 280v447h185v-443c0 -72 46 -120 126 -120s126 48 126 120v443zM229 786v93h314v-93h-314z" />
    <glyph glyph-name="umacron" unicode="&#x16b;" horiz-adv-x="654" 
d="M251 -13c-131 0 -188 82 -188 219v314h174v-285c0 -60 27 -96 82 -96c59 0 92 50 92 107v274h174v-520h-168v45h-28c-32 -39 -73 -58 -138 -58zM167 607v98h314v-98h-314z" />
    <glyph glyph-name="Uring" unicode="&#x16e;" horiz-adv-x="772" 
d="M512 714h185v-447c0 -181 -113 -280 -312 -280c-197 0 -310 99 -310 280v447h185v-443c0 -72 46 -120 126 -120s126 48 126 120v443zM386 983c69 0 124 -53 124 -120c0 -66 -55 -119 -124 -119c-68 0 -124 53 -124 119c0 67 56 120 124 120zM386 817c25 0 46 21 46 46
c0 27 -21 47 -46 47s-46 -20 -46 -47c0 -25 21 -46 46 -46z" />
    <glyph glyph-name="uring" unicode="&#x16f;" horiz-adv-x="654" 
d="M251 -13c-131 0 -188 82 -188 219v314h174v-285c0 -60 27 -96 82 -96c59 0 92 50 92 107v274h174v-520h-168v45h-28c-32 -39 -73 -58 -138 -58zM324 805c69 0 124 -53 124 -120c0 -66 -55 -119 -124 -119c-68 0 -124 53 -124 119c0 67 56 120 124 120zM324 639
c25 0 46 21 46 46c0 27 -21 47 -46 47s-46 -20 -46 -47c0 -25 21 -46 46 -46z" />
    <glyph glyph-name="Uhungarumlaut" unicode="&#x170;" horiz-adv-x="772" 
d="M512 714h185v-447c0 -181 -113 -280 -312 -280c-197 0 -310 99 -310 280v447h185v-443c0 -72 46 -120 126 -120s126 48 126 120v443zM459 896l-103 -129h-134l78 129h159zM661 896l-103 -129h-134l78 129h159z" />
    <glyph glyph-name="uhungarumlaut" unicode="&#x171;" horiz-adv-x="654" 
d="M251 -13c-131 0 -188 82 -188 219v314h174v-285c0 -60 27 -96 82 -96c59 0 92 50 92 107v274h174v-520h-168v45h-28c-32 -39 -73 -58 -138 -58zM369 727l-97 -145h-134l72 145h159zM571 727l-97 -145h-134l72 145h159z" />
    <glyph glyph-name="Uogonek" unicode="&#x172;" horiz-adv-x="772" 
d="M512 714h185v-447c0 -142 -67 -219 -165 -256c-64 -25 -84 -48 -84 -75c0 -21 15 -41 52 -41v-95h-36c-108 0 -139 49 -139 97c0 31 12 65 51 90c-192 3 -301 101 -301 280v447h185v-443c0 -72 46 -120 126 -120s126 48 126 120v443z" />
    <glyph glyph-name="uogonek" unicode="&#x173;" horiz-adv-x="654" 
d="M251 -13c-131 0 -188 82 -188 219v314h174v-285c0 -60 27 -96 82 -96c59 0 92 50 92 107v274h174v-520c-33 -19 -50 -43 -50 -64s15 -41 52 -41v-95h-36c-108 0 -139 49 -139 97c0 35 17 79 76 103h-71v45h-28c-32 -39 -73 -58 -138 -58z" />
    <glyph glyph-name="Ydieresis" unicode="&#x178;" horiz-adv-x="701" 
d="M336 454h28l130 260h194l-245 -471v-243h-186v244l-244 470h192zM178 896h139v-129h-139v129zM384 896h139v-129h-139v129z" />
    <glyph glyph-name="Zacute" unicode="&#x179;" horiz-adv-x="679" 
d="M621 714v-194l-344 -325v-31h361v-164h-597v194l346 325v31h-318v164h552zM404 767h-158l96 129h184z" />
    <glyph glyph-name="zacute" unicode="&#x17a;" horiz-adv-x="578" 
d="M515 351l-228 -181v-28h240v-142h-476v169l229 181v28h-213v142h448v-169zM341 582h-152l96 145h178z" />
    <glyph glyph-name="Zdotaccent" unicode="&#x17b;" horiz-adv-x="679" 
d="M621 714v-194l-344 -325v-31h361v-164h-597v194l346 325v31h-318v164h552zM252 896h174v-129h-174v129z" />
    <glyph glyph-name="zdotaccent" unicode="&#x17c;" horiz-adv-x="578" 
d="M515 351l-228 -181v-28h240v-142h-476v169l229 181v28h-213v142h448v-169zM202 727h174v-145h-174v145z" />
    <glyph glyph-name="Zcaron" unicode="&#x17d;" horiz-adv-x="679" 
d="M621 714v-194l-344 -325v-31h361v-164h-597v194l346 325v31h-318v164h552zM287 896l39 -46h28l39 46h128l-111 -129h-142l-111 129h130z" />
    <glyph glyph-name="zcaron" unicode="&#x17e;" horiz-adv-x="578" 
d="M515 351l-228 -181v-28h240v-142h-476v169l229 181v28h-213v142h448v-169zM304 672l44 55h123l-112 -145h-140l-112 145h125l44 -55h28z" />
    <glyph glyph-name="florin" unicode="&#x192;" horiz-adv-x="484" 
d="M213 -200h-173l90 517h-87v142h112l6 34c32 179 116 234 258 234h55v-142h-42c-64 0 -88 -35 -101 -108l-3 -18h98v-142h-123z" />
    <glyph glyph-name="circumflex" unicode="&#x2c6;" horiz-adv-x="444" 
d="M207 637l-44 -55h-123l112 145h140l112 -145h-125l-44 55h-28z" />
    <glyph glyph-name="caron" unicode="&#x2c7;" horiz-adv-x="444" 
d="M237 672l44 55h123l-112 -145h-140l-112 145h125l44 -55h28z" />
    <glyph glyph-name="breve" unicode="&#x2d8;" horiz-adv-x="377" 
d="M240 727h97c0 -84 -47 -145 -148 -145s-149 61 -149 145h98c0 -35 16 -56 51 -56c33 0 51 21 51 56z" />
    <glyph glyph-name="dotaccent" unicode="&#x2d9;" horiz-adv-x="254" 
d="M40 727h174v-145h-174v145z" />
    <glyph glyph-name="ring" unicode="&#x2da;" horiz-adv-x="328" 
d="M164 805c69 0 124 -53 124 -120c0 -66 -55 -119 -124 -119c-68 0 -124 53 -124 119c0 67 56 120 124 120zM164 639c25 0 46 21 46 46c0 27 -21 47 -46 47s-46 -20 -46 -47c0 -25 21 -46 46 -46z" />
    <glyph glyph-name="ogonek" unicode="&#x2db;" horiz-adv-x="255" 
d="M149 10l64 -10c-33 -19 -50 -43 -50 -64s15 -41 52 -41v-95h-36c-108 0 -139 49 -139 97c0 40 25 95 109 113z" />
    <glyph glyph-name="tilde" unicode="&#x2dc;" horiz-adv-x="417" 
d="M109 582h-69c0 83 33 145 108 145c61 0 88 -48 130 -48c19 0 30 20 30 48h69c0 -80 -33 -145 -108 -145c-61 0 -88 48 -130 48c-19 0 -30 -19 -30 -48z" />
    <glyph glyph-name="hungarumlaut" unicode="&#x2dd;" horiz-adv-x="513" 
d="M271 727l-97 -145h-134l72 145h159zM473 727l-97 -145h-134l72 145h159z" />
    <glyph glyph-name="uni03A9" unicode="&#x3a9;" horiz-adv-x="780" 
d="M629 168v-28h105v-140h-306v149c83 60 115 136 115 228c0 123 -65 186 -153 186c-89 0 -154 -63 -154 -186c0 -92 32 -168 115 -228v-149h-305v140h105v28c-63 47 -105 126 -105 230c0 187 125 329 344 329s343 -142 343 -329c0 -104 -43 -183 -104 -230z" />
    <glyph glyph-name="pi" unicode="&#x3c0;" horiz-adv-x="665" 
d="M272 0h-174v379h-76v141h600v-141h-87v-179c0 -41 10 -59 55 -59h33v-141h-80c-109 0 -182 33 -182 186v193h-89v-379z" />
    <glyph glyph-name="uni0401" unicode="&#x401;" horiz-adv-x="675" 
d="M539 284h-276v-120h371v-164h-557v714h548v-164h-362v-106h276v-160zM180 896h139v-129h-139v129zM386 896h139v-129h-139v129z" />
    <glyph glyph-name="uni0402" unicode="&#x402;" horiz-adv-x="844" 
d="M533 440c205 0 265 -115 265 -225c0 -189 -125 -228 -249 -228c-16 0 -30 0 -39 1l-14 2v164l10 -2c7 -1 13 -1 21 -1c55 0 85 18 85 61c0 40 -33 65 -118 65c-28 0 -74 -4 -105 -12v-265h-186v550h-188v164h613v-164h-239v-123c44 9 95 13 144 13z" />
    <glyph glyph-name="uni0403" unicode="&#x403;" horiz-adv-x="647" 
d="M263 550v-550h-186v714h533v-164h-347zM381 757h-152l96 145h178z" />
    <glyph glyph-name="uni0404" unicode="&#x404;" horiz-adv-x="748" 
d="M508 222h193c-13 -138 -133 -235 -307 -235c-220 0 -348 148 -348 370s125 370 346 370c168 0 278 -95 302 -226h-193c-12 39 -56 62 -112 62c-79 0 -128 -45 -143 -125h222v-159h-222c12 -83 68 -128 145 -128c63 0 106 24 117 71z" />
    <glyph glyph-name="uni0405" unicode="&#x405;" horiz-adv-x="706" 
d="M637 508h-190c-11 48 -49 64 -105 64c-49 0 -91 -19 -91 -62c0 -35 26 -48 69 -55l131 -21c116 -19 204 -83 204 -214c0 -123 -95 -233 -298 -233c-191 0 -300 90 -315 243h190c11 -69 70 -88 133 -88c64 0 103 27 103 67c0 44 -31 59 -82 68l-134 22
c-129 21 -189 95 -189 203c0 123 100 225 281 225c160 0 280 -81 293 -219z" />
    <glyph glyph-name="uni0406" unicode="&#x406;" horiz-adv-x="350" 
d="M268 714v-714h-186v714h186z" />
    <glyph glyph-name="uni0407" unicode="&#x407;" horiz-adv-x="350" 
d="M268 714v-714h-186v714h186zM3 896h139v-129h-139v129zM209 896h139v-129h-139v129z" />
    <glyph glyph-name="uni0408" unicode="&#x408;" horiz-adv-x="617" 
d="M287 -13c-152 0 -261 87 -264 247h185c2 -55 28 -83 77 -83s71 38 71 99v464h186v-467c0 -165 -96 -260 -255 -260z" />
    <glyph glyph-name="uni0409" unicode="&#x409;" horiz-adv-x="1168" 
d="M706 489h141c175 0 275 -89 275 -242c0 -156 -100 -247 -275 -247h-327v550h-195v-158c0 -340 -88 -392 -270 -392h-29v180h28c73 0 99 14 99 217v317h553v-225zM706 159h113c83 0 113 30 113 86s-30 85 -113 85h-113v-171z" />
    <glyph glyph-name="uni040A" unicode="&#x40a;" horiz-adv-x="1166" 
d="M704 489h141c175 0 275 -89 275 -242c0 -156 -100 -247 -275 -247h-327v283h-255v-283h-186v714h186v-264h255v264h186v-225zM704 159h113c83 0 113 30 113 86s-30 85 -113 85h-113v-171z" />
    <glyph glyph-name="uni040B" unicode="&#x40b;" horiz-adv-x="848" 
d="M798 0h-186v173c0 51 -1 103 -130 103c-28 0 -62 -4 -93 -13v-263h-186v550h-188v164h613v-164h-239v-126c44 11 95 16 144 16c255 0 265 -116 265 -230v-210z" />
    <glyph glyph-name="uni040C" unicode="&#x40c;" horiz-adv-x="764" 
d="M77 0v714h186v-263h144l123 263h187l-160 -347l169 -367h-187l-131 284h-145v-284h-186zM454 767h-158l96 129h184z" />
    <glyph glyph-name="uni040E" unicode="&#x40e;" horiz-adv-x="715" 
d="M350 429h28l135 285h185l-342 -714h-183l102 214l-265 500h192zM359 751c-123 0 -186 61 -198 153h132c7 -21 23 -46 66 -46s59 25 66 46h132c-12 -92 -75 -153 -198 -153z" />
    <glyph glyph-name="uni040F" unicode="&#x40f;" horiz-adv-x="780" 
d="M703 0h-220v-175h-186v175h-220v714h186v-550h254v550h186v-714z" />
    <glyph glyph-name="uni0410" unicode="&#x410;" horiz-adv-x="743" 
d="M512 714l214 -714h-185l-52 185h-240l-51 -185h-181l214 714h281zM347 538l-58 -207h159l-57 207h-44z" />
    <glyph glyph-name="uni0411" unicode="&#x411;" horiz-adv-x="735" 
d="M263 550v-96h170c163 0 256 -84 256 -225c0 -144 -93 -229 -256 -229h-356v714h545v-164h-359zM263 159h137c72 0 99 26 99 75c0 48 -27 74 -99 74h-137v-149z" />
    <glyph glyph-name="uni0412" unicode="&#x412;" horiz-adv-x="738" 
d="M597 382v-28c43 -21 89 -74 89 -144c0 -120 -76 -210 -248 -210h-361v714h350c163 0 240 -88 240 -195c0 -64 -30 -114 -70 -137zM263 564v-123h139c40 0 74 14 74 61s-36 62 -76 62h-137zM263 153h145c43 0 87 16 87 67c0 53 -37 71 -84 71h-148v-138z" />
    <glyph glyph-name="uni0413" unicode="&#x413;" horiz-adv-x="647" 
d="M263 550v-550h-186v714h533v-164h-347z" />
    <glyph glyph-name="uni0414" unicode="&#x414;" horiz-adv-x="825" 
d="M622 0h-421v-175h-180v339h74c43 68 78 176 78 332v218h528v-550h101v-339h-180v175zM521 164v386h-181v-54c0 -156 -22 -264 -63 -332h244z" />
    <glyph glyph-name="uni0415" unicode="&#x415;" horiz-adv-x="675" 
d="M539 284h-276v-120h371v-164h-557v714h548v-164h-362v-106h276v-160z" />
    <glyph glyph-name="uni0416" unicode="&#x416;" horiz-adv-x="1108" 
d="M464 446v268h180v-268h124l106 268h187l-143 -352l152 -362h-187l-114 279h-125v-279h-180v279h-125l-114 -279h-187l152 362l-143 352h187l106 -268h124z" />
    <glyph glyph-name="uni0417" unicode="&#x417;" horiz-adv-x="718" 
d="M451 504c0 40 -44 59 -93 59c-54 0 -98 -15 -106 -64h-193c13 147 130 227 303 227s280 -80 280 -199c0 -74 -35 -117 -70 -136v-28c57 -20 94 -69 94 -153c0 -128 -116 -223 -305 -223c-208 0 -312 90 -327 243h196c11 -49 51 -79 130 -79c69 0 111 27 111 68
c0 43 -33 66 -101 66h-99v159h99c63 0 81 27 81 60z" />
    <glyph glyph-name="uni0418" unicode="&#x418;" horiz-adv-x="802" 
d="M77 714h170v-451h28l211 451h239v-714h-170v451h-28l-211 -451h-239v714z" />
    <glyph glyph-name="uni0419" unicode="&#x419;" horiz-adv-x="802" 
d="M77 714h170v-451h28l211 451h239v-714h-170v451h-28l-211 -451h-239v714zM401 751c-123 0 -186 61 -198 153h132c7 -21 23 -46 66 -46s59 25 66 46h132c-12 -92 -75 -153 -198 -153z" />
    <glyph glyph-name="uni041A" unicode="&#x41a;" horiz-adv-x="744" 
d="M77 0v714h186v-263h144l123 263h187l-160 -347l169 -367h-187l-131 284h-145v-284h-186z" />
    <glyph glyph-name="uni041B" unicode="&#x41b;" horiz-adv-x="783" 
d="M26 0v180h28c73 0 99 14 99 217v317h553v-714h-186v550h-195v-158c0 -340 -88 -392 -270 -392h-29z" />
    <glyph glyph-name="uni041C" unicode="&#x41c;" horiz-adv-x="896" 
d="M541 714h278v-714h-171v483h-28l-81 -257h-182l-81 257h-28v-483h-171v714h278l79 -259h28z" />
    <glyph glyph-name="uni041D" unicode="&#x41d;" horiz-adv-x="791" 
d="M528 714h186v-714h-186v283h-265v-283h-186v714h186v-264h265v264z" />
    <glyph glyph-name="uni041E" unicode="&#x41e;" horiz-adv-x="806" 
d="M403 727c231 0 357 -158 357 -370s-126 -370 -357 -370s-357 158 -357 370s126 370 357 370zM403 151c111 0 167 86 167 206s-56 206 -167 206s-167 -85 -167 -206c0 -120 56 -206 167 -206z" />
    <glyph glyph-name="uni041F" unicode="&#x41f;" horiz-adv-x="783" 
d="M77 714h629v-714h-186v550h-257v-550h-186v714z" />
    <glyph glyph-name="uni0420" unicode="&#x420;" horiz-adv-x="732" 
d="M77 714h342c169 0 267 -86 267 -235c0 -151 -98 -239 -267 -239h-156v-240h-186v714zM263 399h132c73 0 101 26 101 77s-28 76 -101 76h-132v-153z" />
    <glyph glyph-name="uni0421" unicode="&#x421;" horiz-adv-x="749" 
d="M511 243h191c-19 -151 -132 -256 -308 -256c-220 0 -348 148 -348 370s128 370 348 370c169 0 278 -98 302 -234h-193c-12 47 -53 70 -109 70c-104 0 -158 -85 -158 -206c0 -120 54 -206 158 -206c64 0 108 32 117 92z" />
    <glyph glyph-name="uni0422" unicode="&#x422;" horiz-adv-x="643" 
d="M628 714v-164h-214v-550h-186v550h-213v164h613z" />
    <glyph glyph-name="uni0423" unicode="&#x423;" horiz-adv-x="715" 
d="M350 429h28l135 285h185l-342 -714h-183l102 214l-265 500h192z" />
    <glyph glyph-name="uni0424" unicode="&#x424;" horiz-adv-x="924" 
d="M550 652h7c191 0 325 -97 325 -285c0 -192 -134 -285 -325 -285h-7v-95h-176v95h-7c-193 0 -325 93 -325 285c0 188 134 285 325 285h7v85h176v-85zM550 237h7c84 0 140 41 140 130c0 92 -56 131 -140 131h-7v-261zM367 237h7v261h-7c-84 0 -140 -39 -140 -131
c0 -89 56 -130 140 -130z" />
    <glyph glyph-name="uni0425" unicode="&#x425;" horiz-adv-x="722" 
d="M504 0l-129 276h-28l-132 -276h-197l186 374l-161 340h185l120 -248h28l123 248h184l-165 -337l186 -377h-200z" />
    <glyph glyph-name="uni0426" unicode="&#x426;" horiz-adv-x="827" 
d="M624 -175v175h-547v714h186v-550h254v550h186v-550h101v-339h-180z" />
    <glyph glyph-name="uni0427" unicode="&#x427;" horiz-adv-x="722" 
d="M50 714h186v-203c0 -51 1 -103 130 -103c28 0 62 4 93 13v293h186v-714h-186v260c-44 -11 -95 -16 -144 -16c-255 0 -265 116 -265 230v240z" />
    <glyph glyph-name="uni0428" unicode="&#x428;" horiz-adv-x="1080" 
d="M1003 0h-926v714h180v-550h193v550h180v-550h193v550h180v-714z" />
    <glyph glyph-name="uni0429" unicode="&#x429;" horiz-adv-x="1127" 
d="M924 -175v175h-847v714h180v-550h193v550h180v-550h193v550h180v-550h101v-339h-180z" />
    <glyph glyph-name="uni042A" unicode="&#x42a;" horiz-adv-x="849" 
d="M377 489h151c175 0 275 -89 275 -242c0 -156 -100 -247 -275 -247h-337v550h-181v164h367v-225zM377 159h123c83 0 113 30 113 86s-30 85 -113 85h-123v-171z" />
    <glyph glyph-name="uni042B" unicode="&#x42b;" horiz-adv-x="992" 
d="M263 489h122c175 0 275 -89 275 -242c0 -156 -100 -247 -275 -247h-308v714h186v-225zM263 159h94c83 0 113 30 113 86s-30 85 -113 85h-94v-171zM915 714v-714h-186v714h186z" />
    <glyph glyph-name="uni042C" unicode="&#x42c;" horiz-adv-x="735" 
d="M263 489h151c175 0 275 -89 275 -242c0 -156 -100 -247 -275 -247h-337v714h186v-225zM263 159h123c83 0 113 30 113 86s-30 85 -113 85h-123v-171z" />
    <glyph glyph-name="uni042D" unicode="&#x42d;" horiz-adv-x="735" 
d="M34 222h193c11 -47 54 -71 117 -71c77 0 133 45 145 128h-222v159h222c-15 80 -64 125 -143 125c-56 0 -100 -23 -112 -62h-193c24 131 134 226 302 226c221 0 346 -148 346 -370s-128 -370 -348 -370c-174 0 -294 97 -307 235z" />
    <glyph glyph-name="uni042E" unicode="&#x42e;" horiz-adv-x="1115" 
d="M716 727c228 0 353 -158 353 -370s-125 -370 -353 -370c-202 0 -321 123 -348 296h-105v-283h-186v714h186v-264h109c32 163 151 277 344 277zM716 151c105 0 163 86 163 206s-58 206 -163 206s-163 -85 -163 -206c0 -120 58 -206 163 -206z" />
    <glyph glyph-name="uni042F" unicode="&#x42f;" horiz-adv-x="726" 
d="M300 714h349v-714h-186v250h-148l-89 -250h-186l103 287c-68 39 -104 105 -104 196c0 145 96 231 261 231zM325 405h138v147h-138c-69 0 -96 -25 -96 -73c0 -47 27 -74 96 -74z" />
    <glyph glyph-name="uni0430" unicode="&#x430;" horiz-adv-x="604" 
d="M293 533c147 0 248 -52 248 -205v-328h-159v40h-28c-31 -35 -70 -53 -137 -53c-115 0 -182 83 -182 175c0 81 61 173 219 173h120v9c0 49 -27 66 -71 66s-65 -17 -69 -45h-172c3 101 98 168 231 168zM374 205v31h-84c-48 0 -81 -21 -81 -60c0 -40 27 -61 74 -61
c57 0 91 39 91 90z" />
    <glyph glyph-name="uni0431" unicode="&#x431;" horiz-adv-x="639" 
d="M348 496c147 0 250 -106 250 -255c0 -150 -114 -254 -277 -254c-173 0 -280 108 -280 324c0 161 41 331 205 358l132 21c39 7 50 14 53 37h134c0 -62 -8 -139 -106 -155l-178 -28c-60 -8 -100 -34 -116 -119h28c33 52 83 71 155 71zM321 129c72 0 103 55 103 118
c0 62 -31 117 -103 117c-73 0 -104 -55 -104 -117c0 -63 31 -118 104 -118z" />
    <glyph glyph-name="uni0432" unicode="&#x432;" horiz-adv-x="627" 
d="M492 289v-28c51 -13 89 -50 89 -117c0 -96 -67 -144 -184 -144h-328v520h321c105 0 164 -49 164 -132c0 -51 -31 -84 -62 -99zM238 111h102c51 0 67 22 67 53s-16 53 -67 53h-102v-106zM238 410v-90h89c40 0 53 21 53 45c0 25 -13 45 -53 45h-89z" />
    <glyph glyph-name="uni0433" unicode="&#x433;" horiz-adv-x="536" 
d="M69 0v520h439v-142h-265v-378h-174z" />
    <glyph glyph-name="uni0434" unicode="&#x434;" horiz-adv-x="724" 
d="M602 142h90v-285h-162v143h-348v-143h-162v285h82c20 61 34 136 34 224v154h466v-378zM428 142v236h-136v-13c0 -88 -12 -162 -29 -223h165z" />
    <glyph glyph-name="uni0435" unicode="&#x435;" horiz-adv-x="614" 
d="M393 168h176c-23 -113 -106 -181 -255 -181c-165 0 -273 102 -273 273c0 170 106 273 269 273c165 0 263 -100 263 -256v-40h-360c7 -71 39 -108 104 -108c43 0 65 12 76 39zM310 409c-51 0 -77 -24 -90 -68h175c-9 45 -38 68 -85 68z" />
    <glyph glyph-name="uni0436" unicode="&#x436;" horiz-adv-x="915" 
d="M297 195l-89 -195h-175l125 267l-117 253h173l83 -183h81v183h159v-183h81l83 183h173l-117 -253l125 -267h-175l-89 195h-81v-195h-159v195h-81z" />
    <glyph glyph-name="uni0437" unicode="&#x437;" horiz-adv-x="595" 
d="M364 355c0 25 -27 41 -74 41c-48 0 -76 -17 -80 -45h-157c11 126 117 182 251 182c142 0 231 -63 231 -152c0 -61 -27 -83 -51 -96v-28c39 -13 65 -43 65 -102c0 -100 -100 -168 -247 -168c-172 0 -255 68 -266 185h158c9 -36 49 -48 97 -48c52 0 84 14 84 45
c0 28 -23 37 -66 37h-81v110h76c40 0 60 13 60 39z" />
    <glyph glyph-name="uni0438" unicode="&#x438;" horiz-adv-x="664" 
d="M216 0h-147v520h169v-236h24l186 236h147v-520h-169v236h-24z" />
    <glyph glyph-name="uni0439" unicode="&#x439;" horiz-adv-x="664" 
d="M216 0h-147v520h169v-236h24l186 236h147v-520h-169v236h-24zM332 561c-123 0 -186 61 -198 153h132c7 -21 23 -46 66 -46s59 25 66 46h132c-12 -92 -75 -153 -198 -153z" />
    <glyph glyph-name="uni043A" unicode="&#x43a;" horiz-adv-x="643" 
d="M431 0l-99 197h-89v-197h-174v520h174v-181h91l93 181h176l-128 -251l136 -269h-180z" />
    <glyph glyph-name="uni043B" unicode="&#x43b;" horiz-adv-x="670" 
d="M20 0v167h19c63 0 91 28 91 124v229h471v-520h-174v378h-138v-94c0 -210 -82 -284 -250 -284h-19z" />
    <glyph glyph-name="uni043C" unicode="&#x43c;" horiz-adv-x="784" 
d="M518 280l-60 -135h-132l-60 135h-28v-280h-169v520h217l92 -208h28l92 208h217v-520h-169v280h-28z" />
    <glyph glyph-name="uni043D" unicode="&#x43d;" horiz-adv-x="660" 
d="M591 0h-174v196h-174v-196h-174v520h174v-182h174v182h174v-520z" />
    <glyph glyph-name="uni043E" unicode="&#x43e;" horiz-adv-x="637" 
d="M319 533c167 0 277 -105 277 -273s-110 -273 -277 -273c-166 0 -278 105 -278 273s112 273 278 273zM319 129c72 0 103 58 103 131c0 72 -31 131 -103 131c-73 0 -104 -59 -104 -131c0 -73 31 -131 104 -131z" />
    <glyph glyph-name="uni043F" unicode="&#x43f;" horiz-adv-x="656" 
d="M587 0h-174v378h-170v-378h-174v520h518v-520z" />
    <glyph glyph-name="uni0440" unicode="&#x440;" horiz-adv-x="658" 
d="M401 -13c-65 0 -103 22 -130 57h-28v-244h-174v720h168v-44h28c28 35 68 57 136 57c136 0 216 -114 216 -273s-83 -273 -216 -273zM341 391c-73 0 -105 -61 -105 -131s32 -131 105 -131s102 61 102 131s-29 131 -102 131z" />
    <glyph glyph-name="uni0441" unicode="&#x441;" horiz-adv-x="601" 
d="M387 186h171c-11 -118 -112 -199 -248 -199c-161 0 -269 102 -269 273c0 169 108 273 269 273c135 0 232 -75 243 -189h-171c-9 31 -33 47 -71 47c-71 0 -96 -60 -96 -131c0 -72 26 -131 96 -131c43 0 71 21 76 57z" />
    <glyph glyph-name="uni0442" unicode="&#x442;" horiz-adv-x="564" 
d="M30 378v142h504v-142h-165v-378h-174v378h-165z" />
    <glyph glyph-name="uni0443" unicode="&#x443;" horiz-adv-x="628" 
d="M440 520h172l-315 -720h-172l109 257l-218 463h174l117 -252h28z" />
    <glyph glyph-name="uni0444" unicode="&#x444;" horiz-adv-x="822" 
d="M495 0v-200h-168v200c-183 0 -286 109 -286 260s103 260 286 260v207h168v-207c183 0 286 -109 286 -260s-103 -260 -286 -260zM211 260c0 -71 37 -131 116 -131v262c-79 0 -116 -60 -116 -131zM611 260c0 71 -37 131 -116 131v-262c79 0 116 60 116 131z" />
    <glyph glyph-name="uni0445" unicode="&#x445;" horiz-adv-x="636" 
d="M421 0l-85 175h-38l-86 -175h-181l140 267l-126 253h179l77 -163h38l79 163h177l-129 -251l139 -269h-184z" />
    <glyph glyph-name="uni0446" unicode="&#x446;" horiz-adv-x="705" 
d="M409 520h174v-378h90v-285h-162v143h-442v520h174v-378h166v378z" />
    <glyph glyph-name="uni0447" unicode="&#x447;" horiz-adv-x="616" 
d="M41 520h174v-154c0 -32 9 -64 79 -64c31 0 55 4 79 9v209h174v-520h-174v173c-43 -8 -99 -13 -142 -13c-168 0 -190 84 -190 165v195z" />
    <glyph glyph-name="uni0448" unicode="&#x448;" horiz-adv-x="892" 
d="M823 520v-520h-754v520h168v-378h125v378h168v-378h125v378h168z" />
    <glyph glyph-name="uni0449" unicode="&#x449;" horiz-adv-x="945" 
d="M823 142h90v-285h-162v143h-682v520h168v-378h125v378h168v-378h125v378h168v-378z" />
    <glyph glyph-name="uni044A" unicode="&#x44a;" horiz-adv-x="698" 
d="M16 378v142h320v-142h112c140 0 216 -70 216 -187c0 -119 -76 -191 -216 -191h-286v378h-146zM336 142h86c53 0 68 21 68 53c0 35 -15 55 -68 55h-86v-108z" />
    <glyph glyph-name="uni044B" unicode="&#x44b;" horiz-adv-x="878" 
d="M243 520v-142h102c140 0 216 -70 216 -187c0 -119 -76 -191 -216 -191h-276v520h174zM809 520v-520h-174v520h174zM243 142h76c53 0 68 21 68 53c0 35 -15 55 -68 55h-76v-108z" />
    <glyph glyph-name="uni044C" unicode="&#x44c;" horiz-adv-x="605" 
d="M355 0h-286v520h174v-142h112c140 0 216 -70 216 -187c0 -119 -76 -191 -216 -191zM243 142h86c53 0 68 21 68 53c0 35 -15 55 -68 55h-86v-108z" />
    <glyph glyph-name="uni044D" unicode="&#x44d;" horiz-adv-x="608" 
d="M42 176h161c5 -37 40 -60 88 -60c59 0 91 35 100 84h-153v126h151c-11 45 -43 78 -99 78c-43 0 -72 -16 -79 -48h-160c19 108 110 177 245 177c158 0 271 -109 271 -273c0 -165 -112 -273 -272 -273c-140 0 -237 77 -253 189z" />
    <glyph glyph-name="uni044E" unicode="&#x44e;" horiz-adv-x="903" 
d="M588 533c161 0 274 -112 274 -273s-113 -273 -274 -273c-140 0 -242 80 -269 209h-80v-196h-170v520h170v-182h83c31 121 131 195 266 195zM585 129c72 0 103 58 103 131c0 72 -31 131 -103 131c-73 0 -104 -59 -104 -131c0 -73 31 -131 104 -131z" />
    <glyph glyph-name="uni044F" unicode="&#x44f;" horiz-adv-x="610" 
d="M542 520v-520h-174v155h-94l-59 -155h-169l74 192c-50 31 -75 79 -75 144c0 115 81 184 229 184h268zM215 332c0 -35 15 -55 72 -55h81v107h-81c-57 0 -72 -21 -72 -52z" />
    <glyph glyph-name="uni0451" unicode="&#x451;" horiz-adv-x="614" 
d="M393 168h176c-23 -113 -106 -181 -255 -181c-165 0 -273 102 -273 273c0 170 106 273 269 273c165 0 263 -100 263 -256v-40h-360c7 -71 39 -108 104 -108c43 0 65 12 76 39zM310 409c-51 0 -77 -24 -90 -68h175c-9 45 -38 68 -85 68zM140 710h139v-145h-139v145z
M346 710h139v-145h-139v145z" />
    <glyph glyph-name="uni0452" unicode="&#x452;" horiz-adv-x="675" 
d="M22 650h68v77h174v-77h167v-105h-167v-121h28c31 37 67 59 134 59c131 0 186 -82 186 -219v-273c0 -151 -103 -191 -218 -191h-66v142h46c45 0 64 27 64 64v229c0 60 -27 96 -82 96c-59 0 -92 -50 -92 -107v-224h-174v545h-68v105z" />
    <glyph glyph-name="uni0453" unicode="&#x453;" horiz-adv-x="536" 
d="M69 0v520h439v-142h-265v-378h-174zM318 582h-152l96 145h178z" />
    <glyph glyph-name="uni0454" unicode="&#x454;" horiz-adv-x="609" 
d="M405 176h161c-16 -112 -113 -189 -253 -189c-160 0 -272 108 -272 273c0 164 113 273 271 273c135 0 226 -69 245 -177h-160c-7 32 -36 48 -79 48c-56 0 -88 -33 -99 -78h151v-126h-153c9 -49 41 -84 100 -84c48 0 83 23 88 60z" />
    <glyph glyph-name="uni0455" unicode="&#x455;" horiz-adv-x="565" 
d="M267 340l85 -12c104 -13 177 -62 177 -168c0 -89 -79 -173 -242 -173s-244 73 -253 184h172c5 -40 32 -60 83 -60c43 0 66 17 66 45c0 29 -20 40 -63 47l-92 15c-88 15 -149 58 -149 146c0 91 69 169 231 169c136 0 218 -65 230 -160h-171c-5 25 -26 38 -63 38
c-29 0 -53 -12 -53 -35s15 -32 42 -36z" />
    <glyph glyph-name="uni0456" unicode="&#x456;" horiz-adv-x="312" 
d="M69 727h174v-145h-174v145zM69 520h174v-520h-174v520z" />
    <glyph glyph-name="uni0457" unicode="&#x457;" horiz-adv-x="312" 
d="M69 520h174v-520h-174v520zM-15 727h139v-145h-139v145zM191 727h139v-145h-139v145z" />
    <glyph glyph-name="uni0458" unicode="&#x458;" horiz-adv-x="323" 
d="M80 6v514h174v-529c0 -151 -103 -191 -218 -191h-66v142h46c45 0 64 27 64 64zM80 727h174v-145h-174v145z" />
    <glyph glyph-name="uni0459" unicode="&#x459;" horiz-adv-x="963" 
d="M130 520h471v-142h112c140 0 216 -70 216 -187c0 -119 -76 -191 -216 -191h-286v378h-138v-94c0 -210 -82 -284 -250 -284h-19v167h19c63 0 91 28 91 124v229zM601 142h86c53 0 68 21 68 53c0 35 -15 55 -68 55h-86v-108z" />
    <glyph glyph-name="uni045A" unicode="&#x45a;" horiz-adv-x="953" 
d="M703 0h-286v196h-174v-196h-174v520h174v-182h174v182h174v-142h112c140 0 216 -70 216 -187c0 -119 -76 -191 -216 -191zM591 142h86c53 0 68 21 68 53c0 35 -15 55 -68 55h-86v-108z" />
    <glyph glyph-name="uni045B" unicode="&#x45b;" horiz-adv-x="675" 
d="M22 650h68v77h174v-77h167v-105h-167v-121h28c31 37 67 59 134 59c131 0 186 -82 186 -219v-264h-174v235c0 60 -27 96 -82 96c-59 0 -92 -50 -92 -107v-224h-174v545h-68v105z" />
    <glyph glyph-name="uni045C" unicode="&#x45c;" horiz-adv-x="643" 
d="M431 0l-99 197h-89v-197h-174v520h174v-181h91l93 181h176l-128 -251l136 -269h-180zM393 582h-152l96 145h178z" />
    <glyph glyph-name="uni045E" unicode="&#x45e;" horiz-adv-x="628" 
d="M440 520h172l-315 -720h-172l109 257l-218 463h174l117 -252h28zM315 561c-123 0 -186 61 -198 153h132c7 -21 23 -46 66 -46s59 25 66 46h132c-12 -92 -75 -153 -198 -153z" />
    <glyph glyph-name="uni045F" unicode="&#x45f;" horiz-adv-x="652" 
d="M409 520h174v-520h-176v-153h-162v153h-176v520h174v-378h166v378z" />
    <glyph glyph-name="uni0490" unicode="&#x490;" horiz-adv-x="647" 
d="M263 550v-550h-186v714h347v150h186v-314h-347z" />
    <glyph glyph-name="uni0491" unicode="&#x491;" horiz-adv-x="524" 
d="M334 663h162v-285h-253v-378h-174v520h265v143z" />
    <glyph glyph-name="uni0492" unicode="&#x492;" horiz-adv-x="678" 
d="M19 284v140h89v290h533v-163h-347v-127h180v-140h-180v-284h-186v284h-89z" />
    <glyph glyph-name="uni0493" unicode="&#x493;" horiz-adv-x="543" 
d="M20 279h68v241h427v-141h-253v-100h157v-119h-157v-160h-174v160h-68v119z" />
    <glyph glyph-name="uni049A" unicode="&#x49a;" horiz-adv-x="799" 
d="M77 0v714h186v-263h144l123 263h187l-160 -347l93 -203h126v-339h-180v175h-57l-131 284h-145v-284h-186z" />
    <glyph glyph-name="uni049B" unicode="&#x49b;" horiz-adv-x="675" 
d="M431 0l-99 197h-89v-197h-174v520h174v-181h91l93 181h176l-128 -251l64 -127h104v-285h-162v143h-50z" />
    <glyph glyph-name="uni04A2" unicode="&#x4a2;" horiz-adv-x="838" 
d="M528 714h186v-550h101v-339h-180v175h-107v283h-265v-283h-186v714h186v-264h265v264z" />
    <glyph glyph-name="uni04A3" unicode="&#x4a3;" horiz-adv-x="713" 
d="M681 -143h-162v143h-102v196h-174v-196h-174v520h174v-182h174v182h174v-378h90v-285z" />
    <glyph glyph-name="uni04AE" unicode="&#x4ae;" horiz-adv-x="701" 
d="M336 454h28l130 260h194l-245 -471v-243h-186v244l-244 470h192z" />
    <glyph glyph-name="uni04AF" unicode="&#x4af;" horiz-adv-x="601" 
d="M141 -39l-122 559h175l87 -413h44l82 413h175l-125 -559h-74v-161h-174v161h-68z" />
    <glyph glyph-name="uni04B0" unicode="&#x4b0;" horiz-adv-x="701" 
d="M336 454h28l130 260h194l-193 -371h126v-140h-178v-203h-186v203h-178v140h126l-192 371h192z" />
    <glyph glyph-name="uni04B1" unicode="&#x4b1;" horiz-adv-x="623" 
d="M53 0h79l-113 520h175l87 -413h44l82 413h175l-117 -520h72v-102h-154v-98h-174v98h-156v102z" />
    <glyph glyph-name="uni04BA" unicode="&#x4ba;" horiz-adv-x="722" 
d="M672 0h-186v203c0 51 -1 103 -130 103c-28 0 -62 -4 -93 -13v-293h-186v714h186v-260c44 11 95 16 144 16c255 0 265 -116 265 -230v-240z" />
    <glyph glyph-name="uni04BB" unicode="&#x4bb;" horiz-adv-x="654" 
d="M405 533c131 0 186 -82 186 -219v-314h-174v285c0 60 -27 96 -82 96c-59 0 -92 -50 -92 -107v-274h-174v727h174v-253h28c31 37 67 59 134 59z" />
    <glyph glyph-name="uni04D8" unicode="&#x4d8;" horiz-adv-x="779" 
d="M384 567c-60 0 -102 -23 -117 -66h-193c24 133 133 226 306 226c232 0 353 -156 353 -370c0 -212 -118 -370 -346 -370c-217 0 -341 141 -341 404c0 11 1 22 1 33h490c-11 84 -62 143 -153 143zM382 147c91 0 143 54 154 137h-304c8 -80 55 -137 150 -137z" />
    <glyph glyph-name="uni04D9" unicode="&#x4d9;" horiz-adv-x="611" 
d="M218 352h-172c19 109 114 181 253 181c163 0 271 -109 271 -273s-107 -273 -267 -273c-154 0 -262 91 -262 280c0 11 0 22 1 33h357c-7 57 -42 92 -102 92c-43 0 -70 -13 -79 -40zM303 110c59 0 90 31 95 87h-186c3 -56 36 -87 91 -87z" />
    <glyph glyph-name="uni04E8" unicode="&#x4e8;" horiz-adv-x="806" 
d="M403 727c231 0 357 -158 357 -370s-126 -370 -357 -370s-357 158 -357 370s126 370 357 370zM403 147c92 0 149 55 164 142h-329c15 -87 73 -142 165 -142zM403 567c-92 0 -149 -54 -164 -138h327c-15 84 -72 138 -163 138z" />
    <glyph glyph-name="uni04E9" unicode="&#x4e9;" horiz-adv-x="637" 
d="M319 533c167 0 277 -105 277 -273s-110 -273 -277 -273c-166 0 -278 105 -278 273s112 273 278 273zM319 123c60 0 94 35 105 87h-212c11 -52 46 -87 107 -87zM319 397c-60 0 -95 -34 -106 -83h210c-11 49 -45 83 -104 83z" />
    <glyph glyph-name="endash" unicode="&#x2013;" horiz-adv-x="623" 
d="M582 223h-541v128h541v-128z" />
    <glyph glyph-name="emdash" unicode="&#x2014;" horiz-adv-x="879" 
d="M838 223h-797v128h797v-128z" />
    <glyph glyph-name="quoteleft" unicode="&#x2018;" horiz-adv-x="314" 
d="M65 584l90 130h105l-90 -130v-28h79v-174h-184v202z" />
    <glyph glyph-name="quoteright" unicode="&#x2019;" horiz-adv-x="314" 
d="M249 512l-90 -130h-105l90 130v28h-79v174h184v-202z" />
    <glyph glyph-name="quotesinglbase" unicode="&#x201a;" horiz-adv-x="314" 
d="M249 -28l-90 -130h-105l90 130v28h-79v174h184v-202z" />
    <glyph glyph-name="quotedblleft" unicode="&#x201c;" horiz-adv-x="565" 
d="M65 584l90 130h105l-90 -130v-28h79v-174h-184v202zM316 584l90 130h105l-90 -130v-28h79v-174h-184v202z" />
    <glyph glyph-name="quotedblright" unicode="&#x201d;" horiz-adv-x="565" 
d="M249 512l-90 -130h-105l90 130v28h-79v174h184v-202zM500 512l-90 -130h-105l90 130v28h-79v174h184v-202z" />
    <glyph glyph-name="quotedblbase" unicode="&#x201e;" horiz-adv-x="565" 
d="M249 -28l-90 -130h-105l90 130v28h-79v174h184v-202zM500 -28l-90 -130h-105l90 130v28h-79v174h184v-202z" />
    <glyph glyph-name="dagger" unicode="&#x2020;" horiz-adv-x="551" 
d="M198 385h-166v145h166v184h154v-184h167v-145h-167v-537h-154v537z" />
    <glyph glyph-name="daggerdbl" unicode="&#x2021;" horiz-adv-x="551" 
d="M198 385h-166v145h166v184h154v-184h167v-145h-167v-203h167v-145h-167v-189h-154v189h-166v145h166v203z" />
    <glyph glyph-name="bullet" unicode="&#x2022;" horiz-adv-x="408" 
d="M57 356c0 81 66 147 147 147s147 -66 147 -147s-66 -147 -147 -147s-147 66 -147 147z" />
    <glyph glyph-name="ellipsis" unicode="&#x2026;" horiz-adv-x="890" 
d="M249 0h-184v174h184v-174zM537 0h-184v174h184v-174zM825 0h-184v174h184v-174z" />
    <glyph glyph-name="perthousand" unicode="&#x2030;" horiz-adv-x="1253" 
d="M287 0h-117l424 700h116zM200 714c115 0 170 -82 170 -190s-55 -188 -170 -188c-114 0 -169 80 -169 188s55 190 169 190zM200 430c45 0 63 39 63 94c0 56 -18 96 -63 96s-62 -40 -62 -96c0 -55 17 -94 62 -94zM1052 365c115 0 170 -82 170 -190s-55 -188 -170 -188
c-114 0 -169 80 -169 188s55 190 169 190zM1052 81c45 0 63 39 63 94c0 56 -18 96 -63 96s-62 -40 -62 -96c0 -55 17 -94 62 -94zM679 365c115 0 170 -82 170 -190s-55 -188 -170 -188c-114 0 -169 80 -169 188s55 190 169 190zM679 81c45 0 63 39 63 94c0 56 -18 96 -63 96
s-62 -40 -62 -96c0 -55 17 -94 62 -94z" />
    <glyph glyph-name="guilsinglleft" unicode="&#x2039;" horiz-adv-x="430" 
d="M381 495l-177 -189v-28l177 -189h-181l-151 157v92l151 157h181z" />
    <glyph glyph-name="guilsinglright" unicode="&#x203a;" horiz-adv-x="435" 
d="M231 306l-177 189h181l151 -157v-92l-151 -157h-181l177 189v28z" />
    <glyph glyph-name="fraction" unicode="&#x2044;" horiz-adv-x="250" 
d="M-28 0h-117l424 700h116z" />
    <glyph glyph-name="Euro" unicode="&#x20ac;" horiz-adv-x="720" 
d="M15 242l25 77h63c-3 19 -2 38 -1 54h-87l26 77h69c29 157 128 264 291 264c148 0 246 -93 267 -227h-176c-11 47 -41 71 -91 71c-65 0 -100 -39 -113 -108h181l-26 -77h-165c-1 -17 -2 -38 1 -54h145l-25 -77h-110c15 -64 49 -99 113 -99c56 0 89 32 96 92h175
c-21 -147 -116 -248 -272 -248c-159 0 -257 100 -289 255h-97z" />
    <glyph glyph-name="uni20B4" unicode="&#x20b4;" horiz-adv-x="716" 
d="M28 247v77h660v-77h-407c-3 -8 -2 -15 -2 -23c0 -60 41 -87 90 -87c43 0 75 15 90 62h181c-19 -131 -106 -212 -271 -212c-184 0 -267 110 -267 228c0 11 -1 21 2 32h-76zM28 455h407c3 9 5 18 5 33c0 51 -33 77 -76 77c-45 0 -71 -21 -78 -62h-177
c11 128 118 211 258 211c164 0 250 -103 250 -220c0 -15 -1 -27 -4 -39h75v-77h-660v77z" />
    <glyph glyph-name="uni20B8" unicode="&#x20b8;" horiz-adv-x="566" 
d="M15 492v77h536v-77h-179v-492h-178v492h-179zM15 700h536v-77h-536v77z" />
    <glyph glyph-name="uni20BD" unicode="&#x20bd;" horiz-adv-x="722" 
d="M20 383h89v317h305c167 0 262 -85 262 -230c0 -148 -95 -235 -262 -235h-127v-54h148v-77h-148v-104h-178v104h-89v77h89v54h-89v148zM287 383h99c80 0 112 30 112 86c0 55 -32 83 -112 83h-99v-169z" />
    <glyph glyph-name="uni2116" unicode="&#x2116;" horiz-adv-x="1165" 
d="M1124 197h-339v91h339v-91zM954 714c115 0 170 -82 170 -190s-55 -188 -170 -188c-114 0 -169 80 -169 188s55 190 169 190zM954 430c45 0 63 39 63 94c0 56 -18 96 -63 96s-62 -40 -62 -96c0 -55 17 -94 62 -94zM540 700h162v-700h-218l-217 407h-28v-407h-162v700h218
l217 -407h28v407z" />
    <glyph glyph-name="trademark" unicode="&#x2122;" horiz-adv-x="865" 
d="M662 714h149v-381h-93v258h-18l-44 -137h-90l-44 137h-18v-258h-93v381h149l43 -137h17zM347 714v-90h-113v-291h-102v291h-112v90h327z" />
    <glyph glyph-name="Omega" unicode="&#x2126;" horiz-adv-x="780" 
d="M629 168v-28h105v-140h-306v149c83 60 115 136 115 228c0 123 -65 186 -153 186c-89 0 -154 -63 -154 -186c0 -92 32 -168 115 -228v-149h-305v140h105v28c-63 47 -105 126 -105 230c0 187 125 329 344 329s343 -142 343 -329c0 -104 -43 -183 -104 -230z" />
    <glyph glyph-name="arrowleft" unicode="&#x2190;" horiz-adv-x="802" 
d="M299 520h204l-159 -159v-28h409v-146h-409v-28l159 -159h-204l-260 260z" />
    <glyph glyph-name="arrowup" unicode="&#x2191;" horiz-adv-x="668" 
d="M594 454v-204l-159 159h-28v-409h-146v409h-28l-159 -159v204l260 260z" />
    <glyph glyph-name="arrowright" unicode="&#x2192;" horiz-adv-x="802" 
d="M299 520h204l260 -260l-260 -260h-204l159 159v28h-409v146h409v28z" />
    <glyph glyph-name="arrowdown" unicode="&#x2193;" horiz-adv-x="668" 
d="M74 260v204l159 -159h28v409h146v-409h28l159 159v-204l-260 -260z" />
    <glyph glyph-name="uni2196" unicode="&#x2196;" horiz-adv-x="704" 
d="M218 202l-144 145v367h367l145 -144h-225l-20 -20l289 -289l-103 -103l-289 289l-20 -20v-225z" />
    <glyph glyph-name="uni2197" unicode="&#x2197;" horiz-adv-x="704" 
d="M630 347l-144 -145v225l-20 20l-289 -289l-103 103l289 289l-20 20h-225l145 144h367v-367z" />
    <glyph glyph-name="uni2198" unicode="&#x2198;" horiz-adv-x="704" 
d="M74 367l144 145v-225l20 -20l289 289l103 -103l-289 -289l20 -20h225l-145 -144h-367v367z" />
    <glyph glyph-name="uni2199" unicode="&#x2199;" horiz-adv-x="704" 
d="M486 512l144 -145v-367h-367l-145 144h225l20 20l-289 289l103 103l289 -289l20 20v225z" />
    <glyph glyph-name="partialdiff" unicode="&#x2202;" 
d="M132 727h205c103 -69 252 -222 252 -455c0 -166 -99 -285 -275 -285c-171 0 -273 112 -273 267c0 156 91 259 206 259c47 0 81 -10 100 -29h32c-42 98 -175 195 -247 243zM315 129c70 0 99 54 99 125s-29 125 -99 125c-71 0 -100 -54 -100 -125s29 -125 100 -125z" />
    <glyph glyph-name="increment" unicode="&#x2206;" horiz-adv-x="661" 
d="M416 700l205 -535v-165h-581v165l205 535h171zM473 137v28l-127 333h-30l-127 -333v-28h284z" />
    <glyph glyph-name="product" unicode="&#x220f;" horiz-adv-x="639" 
d="M521 -200h-141v783h-121v-783h-141v783h-94v131h591v-131h-94v-783z" />
    <glyph glyph-name="summation" unicode="&#x2211;" horiz-adv-x="583" 
d="M541 550h-296v-28l130 -128v-76l-133 -126v-28h317v-164h-527v192l160 151v28l-154 151v192h503v-164z" />
    <glyph glyph-name="minus" unicode="&#x2212;" horiz-adv-x="667" 
d="M593 366v-147h-519v147h519z" />
    <glyph glyph-name="radical" unicode="&#x221a;" horiz-adv-x="681" 
d="M30 520h142l93 -347h28l153 527h211v-126h-108l-174 -574h-194z" />
    <glyph glyph-name="infinity" unicode="&#x221e;" horiz-adv-x="905" 
d="M440 324h25c49 51 111 120 202 120c96 0 164 -63 164 -162s-68 -162 -164 -162c-90 0 -155 67 -202 120h-25c-47 -53 -112 -120 -202 -120c-96 0 -164 63 -164 162s68 162 164 162c91 0 153 -69 202 -120zM409 282c-43 51 -96 111 -168 111c-61 0 -112 -39 -112 -111
s51 -111 112 -111c71 0 126 59 168 111zM496 282c42 -52 97 -111 168 -111c61 0 112 39 112 111s-51 111 -112 111c-72 0 -125 -60 -168 -111z" />
    <glyph glyph-name="integral" unicode="&#x222b;" horiz-adv-x="540" 
d="M387 477l-77 -443c-32 -179 -117 -234 -258 -234h-55v142h42c64 0 88 35 101 108l77 443c32 179 116 234 258 234h55v-142h-42c-64 0 -88 -35 -101 -108z" />
    <glyph glyph-name="approxequal" unicode="&#x2248;" horiz-adv-x="672" 
d="M484 499h114c0 -135 -61 -195 -153 -195c-89 0 -155 81 -213 81c-25 0 -44 -19 -44 -66h-114c0 135 60 195 152 195c88 0 157 -81 213 -81c25 0 45 19 45 66zM484 268h114c0 -135 -61 -195 -153 -195c-89 0 -155 81 -213 81c-25 0 -44 -19 -44 -66h-114
c0 135 60 195 152 195c88 0 157 -81 213 -81c25 0 45 19 45 66z" />
    <glyph glyph-name="notequal" unicode="&#x2260;" horiz-adv-x="667" 
d="M593 471v-147h-164l-40 -63h204v-147h-296l-71 -114h-152l72 114h-72v147h166l40 63h-206v147h299l73 114h147l-72 -114h72z" />
    <glyph glyph-name="lessequal" unicode="&#x2264;" horiz-adv-x="667" 
d="M353 333v28l-279 76v148l519 -156v-164l-393 -118h393v-147h-519v256z" />
    <glyph glyph-name="greaterequal" unicode="&#x2265;" horiz-adv-x="667" 
d="M315 361v-28l278 -77v-256h-519v147h393l-392 118v164l518 156v-148z" />
    <glyph glyph-name="lozenge" unicode="&#x25ca;" horiz-adv-x="599" 
d="M370 714l179 -357l-179 -357h-142l-179 357l179 357h142zM313 199l74 158l-74 158h-28l-74 -158l74 -158h28z" />
    <glyph glyph-name="commaaccent" unicode="&#xf6c3;" horiz-adv-x="255" 
d="M138 -240h-98l77 63v22h-67v103h165v-125z" />
    <glyph glyph-name="uniFEFF" unicode="&#xfeff;" horiz-adv-x="0" 
 />
    <glyph glyph-name="eight.numr" horiz-adv-x="382" 
d="M295 548v-19c25 -11 54 -37 54 -86c0 -58 -52 -116 -158 -116s-158 58 -158 116c0 49 29 75 54 86v19c-19 11 -40 28 -40 71c0 53 48 102 144 102s144 -49 144 -102c0 -43 -21 -60 -40 -71zM191 644c-29 0 -43 -18 -43 -37c0 -20 14 -40 43 -40s43 20 43 40
c0 19 -14 37 -43 37zM191 411c39 0 51 22 51 43c0 20 -12 43 -51 43s-52 -23 -52 -43c0 -21 13 -43 52 -43z" />
    <glyph glyph-name="nine.numr" horiz-adv-x="383" 
d="M159 456c-66 0 -126 52 -126 126c0 76 60 139 151 139c92 0 166 -51 166 -193c0 -117 -51 -201 -166 -201c-74 0 -132 49 -140 111h102c4 -15 16 -29 41 -29c32 0 60 21 65 74h-20c-11 -12 -29 -27 -73 -27zM187 636c-28 0 -48 -18 -48 -51c0 -32 20 -50 48 -50
c29 0 50 18 50 50s-21 51 -50 51z" />
    <glyph glyph-name="zero.dnom" horiz-adv-x="392" 
d="M195 387c93 0 164 -57 164 -197c0 -137 -71 -197 -164 -197s-162 60 -162 197c0 140 69 197 162 197zM195 87c51 0 58 67 58 103s-7 103 -58 103c-52 0 -57 -67 -57 -103s5 -103 57 -103z" />
    <glyph glyph-name="one.dnom" horiz-adv-x="338" 
d="M226 91h79v-91h-272v91h86v184h-20l-66 -41v96l87 50h106v-289z" />
    <glyph glyph-name="two.dnom" horiz-adv-x="374" 
d="M341 91v-91h-308v111l105 58c51 28 86 57 86 88c0 27 -16 40 -40 40c-23 0 -42 -12 -45 -43h-106c3 85 60 133 155 133c84 0 143 -44 143 -127c0 -56 -33 -91 -74 -118l-56 -31v-20h140z" />
    <glyph glyph-name="three.dnom" horiz-adv-x="370" 
d="M48 380h269v-106l-62 -27v-20c39 -5 82 -36 82 -101c0 -80 -62 -133 -155 -133c-96 0 -156 57 -159 134h107c3 -29 22 -44 53 -44c32 0 49 19 49 44c0 29 -18 45 -49 45c-17 0 -28 -2 -37 -5v79l48 29v20h-146v85z" />
    <glyph glyph-name="seven.numr" horiz-adv-x="345" 
d="M312 602l-135 -268h-109l135 271v20h-170v89h279v-112z" />
    <glyph glyph-name="five.dnom" horiz-adv-x="378" 
d="M224 263c63 0 121 -53 121 -130c0 -84 -68 -140 -153 -140c-96 0 -155 57 -159 134h106c4 -27 22 -44 50 -44c31 0 49 21 49 50c0 35 -22 51 -49 51c-21 0 -37 -8 -50 -24h-96l18 220h257v-85h-178l-3 -52h20c11 9 32 20 67 20z" />
    <glyph glyph-name="six.dnom" horiz-adv-x="383" 
d="M224 258c66 0 126 -52 126 -126c0 -76 -60 -139 -151 -139c-92 0 -166 51 -166 193c0 117 51 201 166 201c74 0 132 -49 140 -111h-102c-4 15 -16 29 -41 29c-32 0 -60 -21 -65 -74h20c11 12 29 27 73 27zM196 78c28 0 48 18 48 51c0 32 -20 50 -48 50
c-29 0 -50 -18 -50 -50s21 -51 50 -51z" />
    <glyph glyph-name="seven.dnom" horiz-adv-x="345" 
d="M312 268l-135 -268h-109l135 271v20h-170v89h279v-112z" />
    <glyph glyph-name="eight.dnom" horiz-adv-x="382" 
d="M295 214v-19c25 -11 54 -37 54 -86c0 -58 -52 -116 -158 -116s-158 58 -158 116c0 49 29 75 54 86v19c-19 11 -40 28 -40 71c0 53 48 102 144 102s144 -49 144 -102c0 -43 -21 -60 -40 -71zM191 310c-29 0 -43 -18 -43 -37c0 -20 14 -40 43 -40s43 20 43 40
c0 19 -14 37 -43 37zM191 77c39 0 51 22 51 43c0 20 -12 43 -51 43s-52 -23 -52 -43c0 -21 13 -43 52 -43z" />
    <glyph glyph-name="nine.dnom" horiz-adv-x="383" 
d="M159 123c-66 0 -126 52 -126 126c0 76 60 139 151 139c92 0 166 -51 166 -193c0 -117 -51 -201 -166 -201c-74 0 -132 49 -140 111h102c4 -15 16 -29 41 -29c32 0 60 21 65 74h-20c-11 -12 -29 -27 -73 -27zM187 303c-28 0 -48 -18 -48 -51c0 -32 20 -50 48 -50
c29 0 50 18 50 50s-21 51 -50 51z" />
    <glyph glyph-name="zero.onum" horiz-adv-x="637" 
d="M319 533c164 0 282 -109 282 -273s-118 -273 -282 -273s-283 109 -283 273s119 273 283 273zM319 138c75 0 108 51 108 122c0 69 -33 122 -108 122s-109 -53 -109 -122c0 -71 34 -122 109 -122z" />
    <glyph glyph-name="one.onum" horiz-adv-x="544" 
d="M376 145h125v-145h-440v145h141v207h-30l-111 -70v166l111 72h204v-375z" />
    <glyph glyph-name="two.onum" horiz-adv-x="564" 
d="M529 145v-145h-497v161l225 103c61 27 75 46 75 76c0 29 -23 48 -62 48s-67 -17 -66 -66h-175c-3 121 91 211 245 211c152 0 232 -78 232 -175c0 -89 -62 -131 -145 -168l-38 -17v-28h206z" />
    <glyph glyph-name="three.onum" horiz-adv-x="619" 
d="M64 520h473v-172l-111 -75v-28c81 -13 151 -77 151 -194c0 -148 -112 -244 -277 -244c-168 0 -276 102 -279 236h174c8 -53 50 -85 105 -85c65 0 103 42 103 93c0 57 -37 97 -102 97c-29 0 -48 -3 -67 -8v133l111 75v28h-281v144z" />
    <glyph glyph-name="four.onum" horiz-adv-x="648" 
d="M530 145h83v-145h-83v-180h-169v180h-327v173l304 347h192v-375zM196 145h172v192h-28l-144 -164v-28z" />
    <glyph glyph-name="five.onum" horiz-adv-x="642" 
d="M375 300c118 0 222 -88 222 -236c0 -153 -116 -257 -269 -257c-171 0 -271 101 -279 236h174c8 -51 43 -85 99 -85c64 0 101 47 101 103c0 73 -49 104 -101 104c-36 0 -69 -13 -92 -44h-163l31 399h451v-144h-316l-7 -113h28c23 18 55 37 121 37z" />
    <glyph glyph-name="six.onum" horiz-adv-x="639" 
d="M379 471c124 0 224 -94 224 -232c0 -137 -102 -252 -266 -252c-165 0 -290 93 -290 354c0 220 88 373 291 373c133 0 235 -89 248 -197h-174c-7 28 -30 56 -79 56c-62 0 -110 -43 -118 -151h28c19 22 55 49 136 49zM332 130c56 0 97 37 97 104s-41 103 -97 103
s-97 -35 -97 -102c0 -65 41 -105 97 -105z" />
    <glyph glyph-name="seven.onum" horiz-adv-x="588" 
d="M544 342l-266 -522h-182l266 522v28h-314v150h496v-178z" />
    <glyph glyph-name="eight.onum" horiz-adv-x="645" 
d="M501 387v-28c43 -22 100 -69 100 -158c0 -111 -90 -214 -278 -214c-189 0 -279 103 -279 214c0 89 56 137 100 158v28c-33 19 -76 59 -76 138c0 102 88 189 255 189c168 0 254 -87 254 -189c0 -79 -43 -119 -76 -138zM323 582c-57 0 -88 -39 -88 -79c0 -41 31 -79 88 -79
s87 38 87 79c0 40 -30 79 -87 79zM323 130c73 0 104 46 104 88c0 41 -31 88 -104 88c-75 0 -105 -47 -105 -88c0 -42 30 -88 105 -88z" />
    <glyph glyph-name="nine.onum" horiz-adv-x="639" 
d="M258 49c-124 0 -224 94 -224 232c0 137 102 252 266 252c165 0 290 -93 290 -354c0 -220 -88 -373 -291 -373c-133 0 -235 89 -248 197h174c7 -28 30 -56 79 -56c62 0 110 43 118 151h-28c-19 -22 -55 -49 -136 -49zM305 390c-56 0 -97 -37 -97 -104s41 -103 97 -103
s97 35 97 102c0 65 -41 105 -97 105z" />
    <glyph glyph-name="zero.tnum" 
d="M315 714c160 0 284 -107 284 -363s-124 -364 -284 -364s-284 108 -284 364s124 363 284 363zM210 351c0 -32 1 -74 10 -113l146 303c-15 11 -32 16 -51 16c-99 0 -105 -130 -105 -206zM315 144c99 0 105 132 105 207c0 31 -1 71 -10 110l-145 -302c13 -9 29 -15 50 -15z
" />
    <glyph glyph-name="one.tnum" 
d="M423 154h147v-154h-507v154h182v371h-28l-115 -75v174l114 76h207v-546z" />
    <glyph glyph-name="two.tnum" 
d="M582 154v-154h-538v182l226 154c60 41 116 82 116 143c0 53 -32 81 -79 81s-82 -25 -86 -82h-178c7 151 103 236 270 236c149 0 252 -84 252 -233c0 -141 -140 -232 -244 -299v-28h261z" />
    <glyph glyph-name="three.tnum" 
d="M75 700h475v-176l-112 -71v-28c81 -14 153 -76 153 -194c0 -148 -115 -244 -280 -244c-168 0 -276 102 -279 236h179c8 -53 45 -83 101 -83c64 0 100 40 100 91c0 56 -34 96 -101 96c-29 0 -47 -3 -66 -8v134l112 71v28h-282v148z" />
    <glyph glyph-name="four.tnum" 
d="M526 295h83v-152h-83v-143h-171v143h-325v180l304 377h192v-405zM190 295h172v206h-28l-144 -178v-28z" />
    <glyph glyph-name="five.tnum" 
d="M371 480c117 0 224 -88 224 -236c0 -153 -119 -257 -271 -257c-171 0 -272 101 -280 236h179c8 -51 39 -83 95 -83c64 0 98 45 98 101c0 73 -45 103 -98 103c-36 0 -70 -13 -93 -44h-163l31 400h452v-148h-315l-7 -109h28c23 18 54 37 120 37z" />
    <glyph glyph-name="six.tnum" 
d="M371 471c124 0 226 -94 226 -232c0 -137 -104 -252 -268 -252c-165 0 -292 93 -292 354c0 220 89 373 293 373c132 0 237 -89 250 -197h-178c-7 28 -28 54 -77 54c-62 0 -110 -40 -118 -149h28c19 22 55 49 136 49zM324 131c56 0 94 36 94 103s-38 101 -94 101
s-94 -33 -94 -100c0 -65 38 -104 94 -104z" />
    <glyph glyph-name="seven.tnum" 
d="M559 518l-266 -518h-186l266 518v28h-313v154h499v-182z" />
    <glyph glyph-name="eight.tnum" 
d="M495 387v-28c43 -21 102 -69 102 -158c0 -111 -91 -214 -280 -214c-190 0 -281 103 -281 214c0 89 57 137 102 158v28c-33 19 -78 58 -78 138c0 102 89 189 257 189c167 0 256 -87 256 -189c0 -80 -45 -119 -78 -138zM317 581c-57 0 -86 -39 -86 -78c0 -40 29 -78 86 -78
s85 38 85 78c0 39 -28 78 -85 78zM317 131c73 0 102 44 102 87c0 40 -29 87 -102 87c-75 0 -103 -47 -103 -87c0 -43 28 -87 103 -87z" />
    <glyph glyph-name="nine.tnum" 
d="M260 230c-124 0 -226 94 -226 232c0 137 104 252 268 252c165 0 292 -93 292 -354c0 -220 -89 -373 -293 -373c-132 0 -237 89 -250 197h178c7 -28 28 -54 77 -54c62 0 110 40 118 149h-28c-19 -22 -55 -49 -136 -49zM307 570c-56 0 -94 -36 -94 -103s38 -101 94 -101
s94 33 94 100c0 65 -38 104 -94 104z" />
    <glyph glyph-name="dollar.tnum" 
d="M348 798v-86c124 -13 216 -96 229 -216h-176c-7 32 -26 56 -54 63v-129l53 -9c108 -19 194 -79 194 -206c0 -115 -79 -216 -248 -227v-86h-63v87c-156 11 -234 102 -250 242h176c7 -52 34 -82 74 -89v145l-54 11c-120 23 -177 93 -177 196c0 112 81 208 231 219v85h65z
M417 205c0 36 -20 59 -71 70v-137c43 3 71 32 71 67zM229 502c0 -32 18 -52 54 -60v120c-32 -5 -54 -27 -54 -60z" />
    <glyph glyph-name="Euro.tnum" 
d="M-2 242l25 77h41c-1 11 -2 27 -1 54h-65l26 77h47c24 156 124 264 279 264c147 0 234 -93 258 -227h-176c-8 40 -34 71 -81 71c-60 0 -93 -39 -104 -108h166l-26 -77h-147c-1 -17 -1 -35 0 -54h128l-25 -77h-94c11 -64 42 -99 102 -99c53 0 83 47 88 92h175
c-21 -147 -108 -248 -263 -248c-152 0 -252 104 -278 255h-75z" />
    <glyph glyph-name="sterling.tnum" 
d="M263 154h341v-154h-565v154h15c44 0 58 34 58 83v29h-72v135h72v75c0 133 77 238 235 238c156 0 233 -102 238 -227h-178c-2 49 -21 73 -57 73c-35 0 -60 -19 -60 -75v-84h204v-135h-204v-12c0 -39 -8 -56 -27 -72v-28z" />
    <glyph glyph-name="yen.tnum" 
d="M59 403h81l-124 297h174l111 -297h28l111 297h175l-126 -297h81v-77h-114l-23 -54h137v-77h-169v-195h-173v195h-169v77h136l-22 54h-114v77z" />
    <glyph glyph-name="uni20BD.tnum" 
d="M21 383h74v317h267c167 0 255 -85 255 -230c0 -148 -88 -235 -255 -235h-89v-54h145v-77h-145v-104h-178v104h-74v77h74v54h-74v148zM273 383h57c80 0 109 30 109 86c0 55 -29 83 -109 83h-57v-169z" />
    <glyph glyph-name="uni20B4.tnum" 
d="M24 247v77h582v-77h-354c-1 -9 -2 -17 -2 -25c0 -56 33 -85 78 -85c39 0 64 21 74 62h181c-19 -127 -98 -212 -258 -212c-178 0 -252 110 -252 228c0 11 -1 21 2 32h-51zM24 455h354c3 11 5 23 5 36c0 45 -21 74 -61 74c-43 0 -58 -27 -65 -62h-177
c11 128 108 211 245 211c160 0 235 -104 235 -220c0 -13 -2 -26 -5 -39h51v-77h-582v77z" />
    <glyph glyph-name="uni20B8.tnum" 
d="M47 492v77h536v-77h-179v-492h-178v492h-179zM47 700h536v-77h-536v77z" />
    <glyph glyph-name="cent.tnum" 
d="M348 600v-68c124 -9 208 -80 221 -188h-159c-5 31 -29 55 -62 60v-286c36 7 62 37 66 68h160c-13 -108 -104 -190 -226 -198v-68h-51v68c-143 11 -240 118 -240 272c0 153 97 258 240 271v69h51zM216 260c0 -69 25 -130 81 -142v285c-56 -13 -81 -73 -81 -143z" />
    <glyph glyph-name="circumflex.cap" horiz-adv-x="444" 
d="M274 767l-39 46h-28l-39 -46h-128l111 129h142l111 -129h-130z" />
    <glyph glyph-name="dieresis.cap" horiz-adv-x="425" 
d="M40 896h139v-129h-139v129zM246 896h139v-129h-139v129z" />
    <glyph glyph-name="acute.cap" horiz-adv-x="364" 
d="M202 767h-158l96 129h184z" />
    <glyph glyph-name="grave.cap" horiz-adv-x="364" 
d="M324 767h-158l-122 129h184z" />
    <glyph glyph-name="ring.cap" horiz-adv-x="328" 
d="M164 969c69 0 124 -53 124 -120c0 -66 -55 -119 -124 -119c-68 0 -124 53 -124 119c0 67 56 120 124 120zM164 803c25 0 46 21 46 46c0 27 -21 47 -46 47s-46 -20 -46 -47c0 -25 21 -46 46 -46z" />
    <glyph glyph-name="caron.cap" horiz-adv-x="444" 
d="M170 896l39 -46h28l39 46h128l-111 -129h-142l-111 129h130z" />
    <glyph glyph-name="dotaccent.cap" horiz-adv-x="254" 
d="M40 896h174v-129h-174v129z" />
    <glyph glyph-name="breve.cap" horiz-adv-x="376" 
d="M239 896h97c-3 -77 -49 -129 -148 -129c-97 0 -145 52 -148 129h98c1 -27 19 -45 50 -45s50 18 51 45z" />
    <glyph glyph-name="hungarumlaut.cap" horiz-adv-x="519" 
d="M277 896l-103 -129h-134l78 129h159zM479 896l-103 -129h-134l78 129h159z" />
    <glyph glyph-name="tilde.cap" horiz-adv-x="417" 
d="M108 767h-69c0 73 33 131 108 131c62 0 89 -36 131 -36c20 0 30 11 30 34h69c0 -71 -33 -131 -108 -131c-60 0 -88 37 -131 37c-19 0 -30 -8 -30 -35z" />
    <glyph glyph-name="macron.cap" horiz-adv-x="394" 
d="M40 786v93h314v-93h-314z" />
    <glyph glyph-name="cyrbreve" horiz-adv-x="476" 
d="M238 561c-123 0 -186 61 -198 153h132c7 -21 23 -46 66 -46s59 25 66 46h132c-12 -92 -75 -153 -198 -153z" />
    <glyph glyph-name="cyrbreve.cap" horiz-adv-x="476" 
d="M238 751c-123 0 -186 61 -198 153h132c7 -21 23 -46 66 -46s59 25 66 46h132c-12 -92 -75 -153 -198 -153z" />
    <glyph glyph-name="hyphen.case" horiz-adv-x="405" 
d="M365 297h-323v149h323v-149z" />
    <glyph glyph-name="endash.case" horiz-adv-x="623" 
d="M582 308h-541v128h541v-128z" />
    <glyph glyph-name="emdash.case" horiz-adv-x="879" 
d="M838 308h-797v128h797v-128z" />
    <glyph glyph-name="emdash.ss02.case" horiz-adv-x="1443" 
d="M1402 308h-1361v128h1361v-128z" />
    <glyph glyph-name="bracketleft.case" horiz-adv-x="415" 
d="M366 -93h-301v900h301v-125h-155v-650h155v-125z" />
    <glyph glyph-name="bracketright.case" horiz-adv-x="415" 
d="M350 -93h-301v125h155v650h-155v125h301v-900z" />
    <glyph glyph-name="braceleft.case" horiz-adv-x="449" 
d="M218 371v-28c41 -13 74 -54 74 -118v-83c0 -71 21 -110 88 -110h37v-125h-67c-131 0 -204 85 -204 197v92c0 61 -22 95 -77 95h-29v132h29c55 0 77 34 77 95v92c0 112 73 197 204 197h67v-125h-37c-67 0 -88 -39 -88 -110v-83c0 -64 -33 -105 -74 -118z" />
    <glyph glyph-name="braceright.case" horiz-adv-x="449" 
d="M231 343v28c-41 13 -74 54 -74 118v83c0 71 -21 110 -88 110h-37v125h67c131 0 204 -85 204 -197v-92c0 -61 22 -95 77 -95h29v-132h-29c-55 0 -77 -34 -77 -95v-92c0 -112 -73 -197 -204 -197h-67v125h37c67 0 88 39 88 110v83c0 64 33 105 74 118z" />
    <glyph glyph-name="parenleft.case" horiz-adv-x="343" 
d="M340 -93h-143c-74 90 -156 234 -156 450c0 217 82 360 156 450h143c-67 -99 -152 -245 -152 -450s85 -351 152 -450z" />
    <glyph glyph-name="parenright.case" horiz-adv-x="343" 
d="M146 -93h-143c67 99 152 245 152 450s-85 351 -152 450h143c74 -90 156 -233 156 -450c0 -216 -82 -360 -156 -450z" />
    <glyph glyph-name="guillemotright.case" horiz-adv-x="714" 
d="M226 372l-177 189h186l151 -157v-92l-151 -157h-186l177 189v28zM505 372l-177 189h186l151 -157v-92l-151 -157h-186l177 189v28z" />
    <glyph glyph-name="guillemotleft.case" horiz-adv-x="714" 
d="M665 561l-177 -189v-28l177 -189h-186l-151 157v92l151 157h186zM386 561l-177 -189v-28l177 -189h-186l-151 157v92l151 157h186z" />
    <glyph glyph-name="guilsinglright.case" horiz-adv-x="435" 
d="M231 372l-177 189h181l151 -157v-92l-151 -157h-181l177 189v28z" />
    <glyph glyph-name="guilsinglleft.case" horiz-adv-x="435" 
d="M381 561l-177 -189v-28l177 -189h-181l-151 157v92l151 157h181z" />
    <glyph glyph-name="exclamdown.case" horiz-adv-x="364" 
d="M269 0h-174v287l32 196h110l32 -196v-287zM90 714h184v-174h-184v174z" />
    <glyph glyph-name="questiondown.case" horiz-adv-x="597" 
d="M309 -13c-187 0 -264 101 -264 217c0 95 57 136 121 176c47 31 64 49 64 78v25h178v-25c0 -75 -30 -113 -90 -155c-52 -35 -92 -48 -92 -98c0 -36 25 -64 77 -64c55 0 86 27 87 88h177c0 -126 -80 -242 -258 -242zM228 714h184v-174h-184v174z" />
    <glyph glyph-name="a.ss03" horiz-adv-x="658" 
d="M421 0v44h-28c-27 -35 -71 -57 -136 -57c-133 0 -216 114 -216 273s83 273 216 273c65 0 109 -22 136 -57h28v44h168v-520h-168zM317 129c73 0 105 61 105 131s-32 131 -105 131s-102 -61 -102 -131s29 -131 102 -131z" />
    <glyph glyph-name="aacute.ss03" horiz-adv-x="658" 
d="M421 0v44h-28c-27 -35 -71 -57 -136 -57c-133 0 -216 114 -216 273s83 273 216 273c65 0 109 -22 136 -57h28v44h168v-520h-168zM317 129c73 0 105 61 105 131s-32 131 -105 131s-102 -61 -102 -131s29 -131 102 -131zM388 582h-152l96 145h178z" />
    <glyph glyph-name="agrave.ss03" horiz-adv-x="658" 
d="M421 0v44h-28c-27 -35 -71 -57 -136 -57c-133 0 -216 114 -216 273s83 273 216 273c65 0 109 -22 136 -57h28v44h168v-520h-168zM317 129c73 0 105 61 105 131s-32 131 -105 131s-102 -61 -102 -131s29 -131 102 -131zM437 582h-152l-122 145h178z" />
    <glyph glyph-name="acircumflex.ss03" horiz-adv-x="658" 
d="M325 637l-44 -55h-123l112 145h140l112 -145h-125l-44 55h-28zM421 0v44h-28c-27 -35 -71 -57 -136 -57c-133 0 -216 114 -216 273s83 273 216 273c65 0 109 -22 136 -57h28v44h168v-520h-168zM317 129c73 0 105 61 105 131s-32 131 -105 131s-102 -61 -102 -131
s29 -131 102 -131z" />
    <glyph glyph-name="adieresis.ss03" horiz-adv-x="658" 
d="M421 0v44h-28c-27 -35 -71 -57 -136 -57c-133 0 -216 114 -216 273s83 273 216 273c65 0 109 -22 136 -57h28v44h168v-520h-168zM317 129c73 0 105 61 105 131s-32 131 -105 131s-102 -61 -102 -131s29 -131 102 -131zM163 727h139v-145h-139v145zM369 727h139v-145h-139
v145z" />
    <glyph glyph-name="atilde.ss03" horiz-adv-x="658" 
d="M421 0v44h-28c-27 -35 -71 -57 -136 -57c-133 0 -216 114 -216 273s83 273 216 273c65 0 109 -22 136 -57h28v44h168v-520h-168zM317 129c73 0 105 61 105 131s-32 131 -105 131s-102 -61 -102 -131s29 -131 102 -131zM234 582h-69c0 83 33 145 108 145
c61 0 88 -48 130 -48c19 0 30 20 30 48h69c0 -80 -33 -145 -108 -145c-61 0 -88 48 -130 48c-19 0 -30 -19 -30 -48z" />
    <glyph glyph-name="aring.ss03" horiz-adv-x="658" 
d="M421 0v44h-28c-27 -35 -71 -57 -136 -57c-133 0 -216 114 -216 273s83 273 216 273c65 0 109 -22 136 -57h28v44h168v-520h-168zM317 129c73 0 105 61 105 131s-32 131 -105 131s-102 -61 -102 -131s29 -131 102 -131zM327 805c69 0 124 -53 124 -120
c0 -66 -55 -119 -124 -119c-68 0 -124 53 -124 119c0 67 56 120 124 120zM327 639c25 0 46 21 46 46c0 27 -21 47 -46 47s-46 -20 -46 -47c0 -25 21 -46 46 -46z" />
    <glyph glyph-name="amacron.ss03" horiz-adv-x="658" 
d="M421 0v44h-28c-27 -35 -71 -57 -136 -57c-133 0 -216 114 -216 273s83 273 216 273c65 0 109 -22 136 -57h28v44h168v-520h-168zM317 129c73 0 105 61 105 131s-32 131 -105 131s-102 -61 -102 -131s29 -131 102 -131zM176 607v98h314v-98h-314z" />
    <glyph glyph-name="abreve.ss03" horiz-adv-x="658" 
d="M421 0v44h-28c-27 -35 -71 -57 -136 -57c-133 0 -216 114 -216 273s83 273 216 273c65 0 109 -22 136 -57h28v44h168v-520h-168zM317 129c73 0 105 61 105 131s-32 131 -105 131s-102 -61 -102 -131s29 -131 102 -131zM379 727h97c0 -84 -47 -145 -148 -145
s-149 61 -149 145h98c0 -35 16 -56 51 -56c33 0 51 21 51 56z" />
    <glyph glyph-name="aogonek.ss03" horiz-adv-x="658" 
d="M421 0v44h-28c-27 -35 -71 -57 -136 -57c-133 0 -216 114 -216 273s83 273 216 273c65 0 109 -22 136 -57h28v44h168v-520c-33 -19 -50 -43 -50 -64s15 -41 52 -41v-95h-36c-108 0 -139 49 -139 97c0 35 17 79 76 103h-71zM317 129c73 0 105 61 105 131s-32 131 -105 131
s-102 -61 -102 -131s29 -131 102 -131z" />
    <glyph glyph-name="t.ss04" horiz-adv-x="396" 
d="M264 0h-174v378h-68v142h68v140h174v-140h104v-142h-104v-378z" />
    <glyph glyph-name="tcaron.ss04" horiz-adv-x="476" 
d="M516 656l-90 -90h-95l90 90v28h-79v134h174v-162zM264 0h-174v378h-68v142h68v140h174v-140h104v-142h-104v-378z" />
    <glyph glyph-name="uni0163.ss04" horiz-adv-x="396" 
d="M264 0h-174v378h-68v142h68v140h174v-140h104v-142h-104v-378zM181 -240h-98l77 63v22h-67v103h165v-125z" />
    <glyph glyph-name="Y.ss05" horiz-adv-x="715" 
d="M350 429h28l135 285h185l-342 -714h-183l102 214l-265 500h192z" />
    <glyph glyph-name="Yacute.ss05" horiz-adv-x="715" 
d="M350 429h28l135 285h185l-342 -714h-183l102 214l-265 500h192zM425 767h-158l96 129h184z" />
    <glyph glyph-name="Ydieresis.ss05" horiz-adv-x="715" 
d="M350 429h28l135 285h185l-342 -714h-183l102 214l-265 500h192zM187 896h139v-129h-139v129zM393 896h139v-129h-139v129z" />
    <glyph glyph-name="ampersand.ss06" horiz-adv-x="697" 
d="M563 524h-176c-8 29 -36 47 -73 47c-44 0 -74 -24 -74 -63c0 -41 32 -65 79 -65h48v-142h-48c-69 0 -103 -27 -103 -82c0 -51 38 -83 111 -83c67 0 111 33 111 98v209h239v-142h-65v-67c0 -136 -112 -247 -285 -247c-179 0 -286 86 -286 220c0 91 50 137 93 156v28
c-35 20 -66 56 -66 127c0 115 101 196 251 196c148 0 228 -75 244 -190z" />
    <glyph glyph-name="zero.ss07" horiz-adv-x="660" 
d="M330 714c160 0 284 -107 284 -363s-124 -364 -284 -364s-284 108 -284 364s124 363 284 363zM225 351c0 -32 1 -74 10 -113l146 303c-15 11 -32 16 -51 16c-99 0 -105 -130 -105 -206zM330 144c99 0 105 132 105 207c0 31 -1 71 -10 110l-145 -302c13 -9 29 -15 50 -15z
" />
    <glyph glyph-name="emdash.ss02" horiz-adv-x="1443" 
d="M1402 223h-1361v128h1361v-128z" />
    <glyph glyph-name="uni0430.ss03" horiz-adv-x="658" 
d="M257 533c65 0 103 -22 130 -57h28v44h174v-520h-168v44h-28c-28 -35 -68 -57 -136 -57c-136 0 -216 114 -216 273s83 273 216 273zM317 129c73 0 105 61 105 131s-32 131 -105 131s-102 -61 -102 -131s29 -131 102 -131z" />
    <glyph glyph-name="uni0423.ss08" horiz-adv-x="712" 
d="M278 219l-261 495h192l146 -281h28l132 281h184l-263 -555c-56 -115 -117 -159 -238 -159h-41v173h35c47 0 69 13 81 36z" />
    <glyph glyph-name="uni040E.ss08" horiz-adv-x="712" 
d="M278 219l-261 495h192l146 -281h28l132 281h184l-263 -555c-56 -115 -117 -159 -238 -159h-41v173h35c47 0 69 13 81 36zM358 751c-123 0 -186 61 -198 153h132c7 -21 23 -46 66 -46s59 25 66 46h132c-12 -92 -75 -153 -198 -153z" />
    <glyph glyph-name="six.numr" horiz-adv-x="383" 
d="M224 592c66 0 126 -52 126 -126c0 -76 -60 -139 -151 -139c-92 0 -166 51 -166 193c0 117 51 201 166 201c74 0 132 -49 140 -111h-102c-4 15 -16 29 -41 29c-32 0 -60 -21 -65 -74h20c11 12 29 27 73 27zM196 412c28 0 48 18 48 51c0 32 -20 50 -48 50
c-29 0 -50 -18 -50 -50s21 -51 50 -51z" />
    <glyph glyph-name="five.numr" horiz-adv-x="378" 
d="M224 597c63 0 121 -53 121 -130c0 -84 -68 -140 -153 -140c-96 0 -155 57 -159 134h106c4 -27 22 -44 50 -44c31 0 49 21 49 50c0 35 -22 51 -49 51c-21 0 -37 -8 -50 -24h-96l18 220h257v-85h-178l-3 -52h20c11 9 32 20 67 20z" />
    <glyph glyph-name="four.numr" horiz-adv-x="376" 
d="M300 494h43v-88h-43v-72h-102v72h-175v107l159 201h118v-220zM202 494v106h-20l-67 -87v-19h87z" />
    <glyph glyph-name="three.numr" horiz-adv-x="370" 
d="M48 714h269v-106l-62 -27v-20c39 -5 82 -36 82 -101c0 -80 -62 -133 -155 -133c-96 0 -156 57 -159 134h107c3 -29 22 -44 53 -44c32 0 49 19 49 44c0 29 -18 45 -49 45c-17 0 -28 -2 -37 -5v79l48 29v20h-146v85z" />
    <glyph glyph-name="two.numr" horiz-adv-x="374" 
d="M341 425v-91h-308v111l105 58c51 28 86 57 86 88c0 27 -16 40 -40 40c-23 0 -42 -12 -45 -43h-106c3 85 60 133 155 133c84 0 143 -44 143 -127c0 -56 -33 -91 -74 -118l-56 -31v-20h140z" />
    <glyph glyph-name="quotedbl.ss01" horiz-adv-x="317" 
d="M80 473v241h34v-241h-34zM203 473v241h34v-241h-34z" />
    <glyph glyph-name="numbersign.ss01" horiz-adv-x="551" 
d="M300 0l32 208h-159l-32 -208h-34l32 208h-104v31h110l34 222h-102v31h107l33 208h34l-34 -208h161l33 208h34l-33 -208h104v-31h-109l-35 -222h103v-31h-108l-32 -208h-35zM213 461l-35 -222h160l35 222h-160z" />
    <glyph glyph-name="quotesingle.ss01" horiz-adv-x="194" 
d="M80 473v241h34v-241h-34z" />
    <glyph glyph-name="parenleft.ss01" horiz-adv-x="238" 
d="M190 759h42c-108 -137 -148 -287 -148 -450s40 -313 148 -450h-43c-101 137 -139 287 -139 450c0 164 39 313 140 450z" />
    <glyph glyph-name="parenright.ss01" horiz-adv-x="240" 
d="M6 759h42c101 -137 140 -286 140 -450c0 -163 -38 -313 -139 -450h-43c108 137 148 287 148 450s-40 313 -148 450z" />
    <glyph glyph-name="bracketleft.ss01" horiz-adv-x="258" 
d="M198 -141h-118v900h118v-31h-84v-838h84v-31z" />
    <glyph glyph-name="bracketright.ss01" horiz-adv-x="258" 
d="M178 -141h-118v31h84v838h-84v31h118v-900z" />
    <glyph glyph-name="braceleft.ss01" horiz-adv-x="337" 
d="M137 318v-18c23 -9 36 -31 36 -91v-215c0 -72 25 -104 94 -104h30v-31h-30c-80 0 -128 35 -128 136v204c0 61 -5 95 -46 95h-13v30h13c41 0 46 34 46 95v204c0 101 48 136 128 136h30v-31h-30c-69 0 -94 -32 -94 -104v-215c0 -60 -13 -82 -36 -91z" />
    <glyph glyph-name="braceright.ss01" horiz-adv-x="337" 
d="M200 300v18c-23 9 -36 31 -36 91v215c0 72 -25 104 -94 104h-30v31h30c80 0 128 -35 128 -136v-204c0 -61 5 -95 46 -95h13v-30h-13c-41 0 -46 -34 -46 -95v-204c0 -101 -48 -136 -128 -136h-30v31h30c69 0 94 32 94 104v215c0 60 13 82 36 91z" />
    <glyph glyph-name="asterisk.ss01" horiz-adv-x="452" 
d="M209 714h34l-1 -180l170 60l10 -35l-170 -55l107 -141l-28 -23l-105 147l-105 -147l-28 23l108 142l-171 54l11 35l169 -60z" />
    <glyph glyph-name="plus.ss01" horiz-adv-x="667" 
d="M318 308v244h33v-244h242v-31h-242v-244h-33v244h-244v31h244z" />
    <glyph glyph-name="minus.ss01" horiz-adv-x="667" 
d="M593 277h-519v31h519v-31z" />
    <glyph glyph-name="less.ss01" horiz-adv-x="653" 
d="M579 87v-33l-505 216v44l505 216v-33l-455 -196v-18z" />
    <glyph glyph-name="equal.ss01" horiz-adv-x="667" 
d="M593 212v-31h-519v31h519zM593 404v-31h-519v31h519z" />
    <glyph glyph-name="greater.ss01" horiz-adv-x="653" 
d="M74 54v33l455 196v18l-455 196v33l505 -216v-44z" />
    <glyph glyph-name="hyphen.ss01" horiz-adv-x="413" 
d="M368 271h-323v31h323v-31z" />
    <glyph glyph-name="endash.ss01" horiz-adv-x="623" 
d="M582 271h-541v31h541v-31z" />
    <glyph glyph-name="emdash.ss01" horiz-adv-x="879" 
d="M838 271h-797v31h797v-31z" />
    <glyph glyph-name="emdash.ss01.ss02" horiz-adv-x="1443" 
d="M1402 271h-1361v31h1361v-31z" />
    <glyph glyph-name="underscore.ss01" horiz-adv-x="517" 
d="M518 -128h-519v31h519v-31z" />
    <glyph glyph-name="slash.ss01" horiz-adv-x="365" 
d="M36 -141h-36l302 900h33z" />
    <glyph glyph-name="bar.ss01" horiz-adv-x="214" 
d="M90 -141v900h34v-900h-34z" />
    <glyph glyph-name="backslash.ss01" horiz-adv-x="365" 
d="M365 -141h-36l-299 900h33z" />
    <glyph glyph-name="degree.ss01" horiz-adv-x="461" 
d="M40 523c0 114 82 198 190 198s191 -84 191 -198c0 -113 -83 -197 -191 -197s-190 84 -190 197zM74 523c0 -94 65 -166 156 -166c92 0 157 72 157 166c0 96 -65 167 -157 167c-91 0 -156 -71 -156 -167z" />
    <glyph glyph-name="guillemotleft.ss01" horiz-adv-x="485" 
d="M85 301v-18l185 -194h-42l-179 183v39l178 184h42zM251 301v-18l185 -194h-42l-179 183v39l178 184h42z" />
    <glyph glyph-name="guillemotright.ss01" horiz-adv-x="485" 
d="M400 283v18l-185 194h42l179 -183v-39l-178 -184h-42zM234 283v18l-185 194h42l179 -183v-39l-178 -184h-42z" />
    <glyph glyph-name="guilsinglleft.ss01" horiz-adv-x="319" 
d="M85 301v-18l185 -194h-42l-179 183v39l178 184h42z" />
    <glyph glyph-name="guilsinglright.ss01" horiz-adv-x="319" 
d="M234 283v18l-184 194h42l178 -184v-39l-179 -183h-42z" />
    <glyph glyph-name="quoteleft.ss01" horiz-adv-x="234" 
d="M106 610h33v-102h-64v119l48 87h31l-48 -87v-17z" />
    <glyph glyph-name="quoteright.ss01" horiz-adv-x="234" 
d="M123 612h-33v102h64v-119l-48 -87h-31l48 87v17z" />
    <glyph glyph-name="quotesinglbase.ss01" horiz-adv-x="234" 
d="M123 0h-33v102h64v-119l-48 -87h-31l48 87v17z" />
    <glyph glyph-name="quotedblleft.ss01" horiz-adv-x="371" 
d="M243 610h33v-102h-64v119l48 87h31l-48 -87v-17zM106 610h33v-102h-64v119l48 87h31l-48 -87v-17z" />
    <glyph glyph-name="quotedblright.ss01" horiz-adv-x="371" 
d="M123 612h-33v102h64v-119l-48 -87h-31l48 87v17zM260 612h-33v102h64v-119l-48 -87h-31l48 87v17z" />
    <glyph glyph-name="quotedblbase.ss01" horiz-adv-x="371" 
d="M123 0h-33v102h64v-119l-48 -87h-31l48 87v17zM260 0h-33v102h64v-119l-48 -87h-31l48 87v17z" />
    <glyph glyph-name="arrowleft.ss01" horiz-adv-x="802" 
d="M299 520h46l-223 -224v-20h631v-31h-631v-21l223 -224h-46l-260 260z" />
    <glyph glyph-name="arrowup.ss01" horiz-adv-x="668" 
d="M594 454v-46l-224 225h-19v-633h-34v633h-19l-224 -225v46l260 260z" />
    <glyph glyph-name="arrowright.ss01" horiz-adv-x="802" 
d="M457 520h46l260 -260l-260 -260h-46l223 224v21h-631v31h631v20z" />
    <glyph glyph-name="arrowdown.ss01" horiz-adv-x="668" 
d="M594 306v-46l-260 -260l-260 260v46l224 -225h19v633h34v-633h19z" />
    <glyph glyph-name="uni2196.ss01" horiz-adv-x="665" 
d="M441 714l32 -32h-315l-13 -14l446 -448l-23 -23l-448 447l-13 -14v-316l-33 33v367h367z" />
    <glyph glyph-name="uni2197.ss01" horiz-adv-x="665" 
d="M192 682l32 32h367v-367l-33 -33v316l-13 14l-448 -447l-23 23l446 448l-13 14h-315z" />
    <glyph glyph-name="uni2198.ss01" horiz-adv-x="665" 
d="M473 32l-32 -32h-367v367l33 33v-316l13 -14l448 447l23 -23l-446 -448l13 -14h315z" />
    <glyph glyph-name="uni2199.ss01" horiz-adv-x="665" 
d="M224 0l-32 32h315l13 14l-446 448l23 23l448 -447l13 14v316l33 -33v-367h-367z" />
    <glyph glyph-name="parenleft.ss01.case" horiz-adv-x="238" 
d="M190 807h42c-108 -137 -148 -287 -148 -450s40 -313 148 -450h-43c-101 137 -139 287 -139 450c0 164 39 313 140 450z" />
    <glyph glyph-name="parenright.ss01.case" horiz-adv-x="238" 
d="M6 807h42c101 -137 140 -286 140 -450c0 -163 -38 -313 -139 -450h-43c108 137 148 287 148 450s-40 313 -148 450z" />
    <glyph glyph-name="bracketleft.ss01.case" horiz-adv-x="258" 
d="M198 -93h-118v900h118v-31h-84v-838h84v-31z" />
    <glyph glyph-name="bracketright.ss01.case" horiz-adv-x="258" 
d="M178 -93h-118v31h84v838h-84v31h118v-900z" />
    <glyph glyph-name="braceleft.ss01.case" horiz-adv-x="337" 
d="M137 366v-18c23 -9 36 -31 36 -91v-215c0 -72 25 -104 94 -104h30v-31h-30c-80 0 -128 35 -128 136v204c0 61 -5 95 -46 95h-13v30h13c41 0 46 34 46 95v204c0 101 48 136 128 136h30v-31h-30c-69 0 -94 -32 -94 -104v-215c0 -60 -13 -82 -36 -91z" />
    <glyph glyph-name="braceright.ss01.case" horiz-adv-x="337" 
d="M200 348v18c-23 9 -36 31 -36 91v215c0 72 -25 104 -94 104h-30v31h30c80 0 128 -35 128 -136v-204c0 -61 5 -95 46 -95h13v-30h-13c-41 0 -46 -34 -46 -95v-204c0 -101 -48 -136 -128 -136h-30v31h30c69 0 94 32 94 104v215c0 60 13 82 36 91z" />
    <glyph glyph-name="guillemotleft.ss01.case" horiz-adv-x="485" 
d="M85 367v-18l185 -194h-42l-179 183v39l178 184h42zM251 367v-18l185 -194h-42l-179 183v39l178 184h42z" />
    <glyph glyph-name="guillemotright.ss01.case" horiz-adv-x="485" 
d="M400 349v18l-185 194h42l179 -183v-39l-178 -184h-42zM234 349v18l-185 194h42l179 -183v-39l-178 -184h-42z" />
    <glyph glyph-name="guilsinglleft.ss01.case" horiz-adv-x="319" 
d="M85 367v-18l185 -194h-42l-179 183v39l178 184h42z" />
    <glyph glyph-name="guilsinglright.ss01.case" horiz-adv-x="319" 
d="M234 349v18l-184 194h42l178 -184v-39l-179 -183h-42z" />
    <glyph glyph-name="endash.ss01.case" horiz-adv-x="621" 
d="M582 356h-541v31h541v-31z" />
    <glyph glyph-name="hyphen.ss01.case" horiz-adv-x="397" 
d="M368 356h-323v31h323v-31z" />
    <glyph glyph-name="emdash.ss01.case" horiz-adv-x="879" 
d="M838 356h-797v31h797v-31z" />
    <glyph glyph-name="emdash.ss01.ss02.case" horiz-adv-x="1444" 
d="M1402 356h-1361v31h1361v-31z" />
    <glyph glyph-name="one.numr" horiz-adv-x="338" 
d="M226 425h79v-91h-272v91h86v184h-20l-66 -41v96l87 50h106v-289z" />
    <glyph glyph-name="zero.numr" horiz-adv-x="392" 
d="M195 721c93 0 164 -57 164 -197c0 -137 -71 -197 -164 -197s-162 60 -162 197c0 140 69 197 162 197zM195 421c51 0 58 67 58 103s-7 103 -58 103c-52 0 -57 -67 -57 -103s5 -103 57 -103z" />
    <glyph glyph-name="four.dnom" horiz-adv-x="376" 
d="M300 160h43v-88h-43v-72h-102v72h-175v107l159 201h118v-220zM202 160v106h-20l-67 -87v-19h87z" />
    </font>
</defs>
</svg>
